<mxfile host="app.diagrams.net" agent="Mozilla/5.0 (X11; Ubuntu; Linux x86_64; rv:130.0) Gecko/20100101 Firefox/130.0" version="27.0.6">
  <diagram name="PÃ¡gina-1" id="KT5KRWoTqYwigQ7LO1qb">
    <mxGraphModel dx="1026" dy="579" grid="1" gridSize="10" guides="1" tooltips="1" connect="1" arrows="1" fold="1" page="1" pageScale="1" pageWidth="827" pageHeight="1169" math="0" shadow="0">
      <root>
        <mxCell id="0" />
        <mxCell id="1" parent="0" />
        <mxCell id="HQN57xrEPyGpYtiTeR6K-161" style="edgeStyle=orthogonalEdgeStyle;rounded=0;orthogonalLoop=1;jettySize=auto;html=1;entryX=1;entryY=0.5;entryDx=0;entryDy=0;" parent="1" source="HQN57xrEPyGpYtiTeR6K-1" target="HQN57xrEPyGpYtiTeR6K-155" edge="1">
          <mxGeometry relative="1" as="geometry" />
        </mxCell>
        <mxCell id="HQN57xrEPyGpYtiTeR6K-1" value="CLIENTE" style="shape=table;startSize=30;container=1;collapsible=0;childLayout=tableLayout;fixedRows=1;rowLines=0;fontStyle=0;strokeColor=default;fontSize=16;" parent="1" vertex="1">
          <mxGeometry x="975" y="410" width="470" height="330" as="geometry" />
        </mxCell>
        <mxCell id="HQN57xrEPyGpYtiTeR6K-2" value="" style="shape=tableRow;horizontal=0;startSize=0;swimlaneHead=0;swimlaneBody=0;top=0;left=0;bottom=0;right=0;collapsible=0;dropTarget=0;fillColor=none;points=[[0,0.5],[1,0.5]];portConstraint=eastwest;strokeColor=inherit;fontSize=16;" parent="HQN57xrEPyGpYtiTeR6K-1" vertex="1">
          <mxGeometry y="30" width="470" height="30" as="geometry" />
        </mxCell>
        <mxCell id="HQN57xrEPyGpYtiTeR6K-3" value="1" style="shape=partialRectangle;html=1;whiteSpace=wrap;connectable=0;fillColor=none;top=0;left=0;bottom=0;right=0;overflow=hidden;pointerEvents=1;strokeColor=inherit;fontSize=16;" parent="HQN57xrEPyGpYtiTeR6K-2" vertex="1">
          <mxGeometry width="104" height="30" as="geometry">
            <mxRectangle width="104" height="30" as="alternateBounds" />
          </mxGeometry>
        </mxCell>
        <mxCell id="HQN57xrEPyGpYtiTeR6K-4" value="id INT PRIMARY KEY AUTO_INCREMENT" style="shape=partialRectangle;html=1;whiteSpace=wrap;connectable=0;fillColor=none;top=0;left=0;bottom=0;right=0;align=left;spacingLeft=6;overflow=hidden;strokeColor=inherit;fontSize=16;" parent="HQN57xrEPyGpYtiTeR6K-2" vertex="1">
          <mxGeometry x="104" width="366" height="30" as="geometry">
            <mxRectangle width="366" height="30" as="alternateBounds" />
          </mxGeometry>
        </mxCell>
        <mxCell id="HQN57xrEPyGpYtiTeR6K-5" value="" style="shape=tableRow;horizontal=0;startSize=0;swimlaneHead=0;swimlaneBody=0;top=0;left=0;bottom=0;right=0;collapsible=0;dropTarget=0;fillColor=none;points=[[0,0.5],[1,0.5]];portConstraint=eastwest;strokeColor=inherit;fontSize=16;" parent="HQN57xrEPyGpYtiTeR6K-1" vertex="1">
          <mxGeometry y="60" width="470" height="30" as="geometry" />
        </mxCell>
        <mxCell id="HQN57xrEPyGpYtiTeR6K-6" value="2" style="shape=partialRectangle;html=1;whiteSpace=wrap;connectable=0;fillColor=none;top=0;left=0;bottom=0;right=0;overflow=hidden;strokeColor=inherit;fontSize=16;" parent="HQN57xrEPyGpYtiTeR6K-5" vertex="1">
          <mxGeometry width="104" height="30" as="geometry">
            <mxRectangle width="104" height="30" as="alternateBounds" />
          </mxGeometry>
        </mxCell>
        <mxCell id="HQN57xrEPyGpYtiTeR6K-7" value="contrasenya VARCHAR" style="shape=partialRectangle;html=1;whiteSpace=wrap;connectable=0;fillColor=none;top=0;left=0;bottom=0;right=0;align=left;spacingLeft=6;overflow=hidden;strokeColor=inherit;fontSize=16;" parent="HQN57xrEPyGpYtiTeR6K-5" vertex="1">
          <mxGeometry x="104" width="366" height="30" as="geometry">
            <mxRectangle width="366" height="30" as="alternateBounds" />
          </mxGeometry>
        </mxCell>
        <mxCell id="HQN57xrEPyGpYtiTeR6K-8" value="" style="shape=tableRow;horizontal=0;startSize=0;swimlaneHead=0;swimlaneBody=0;top=0;left=0;bottom=0;right=0;collapsible=0;dropTarget=0;fillColor=none;points=[[0,0.5],[1,0.5]];portConstraint=eastwest;strokeColor=inherit;fontSize=16;" parent="HQN57xrEPyGpYtiTeR6K-1" vertex="1">
          <mxGeometry y="90" width="470" height="30" as="geometry" />
        </mxCell>
        <mxCell id="HQN57xrEPyGpYtiTeR6K-9" value="3" style="shape=partialRectangle;html=1;whiteSpace=wrap;connectable=0;fillColor=none;top=0;left=0;bottom=0;right=0;overflow=hidden;strokeColor=inherit;fontSize=16;" parent="HQN57xrEPyGpYtiTeR6K-8" vertex="1">
          <mxGeometry width="104" height="30" as="geometry">
            <mxRectangle width="104" height="30" as="alternateBounds" />
          </mxGeometry>
        </mxCell>
        <mxCell id="HQN57xrEPyGpYtiTeR6K-10" value="nombre VARCHAR" style="shape=partialRectangle;html=1;whiteSpace=wrap;connectable=0;fillColor=none;top=0;left=0;bottom=0;right=0;align=left;spacingLeft=6;overflow=hidden;strokeColor=inherit;fontSize=16;" parent="HQN57xrEPyGpYtiTeR6K-8" vertex="1">
          <mxGeometry x="104" width="366" height="30" as="geometry">
            <mxRectangle width="366" height="30" as="alternateBounds" />
          </mxGeometry>
        </mxCell>
        <mxCell id="HQN57xrEPyGpYtiTeR6K-14" value="" style="shape=tableRow;horizontal=0;startSize=0;swimlaneHead=0;swimlaneBody=0;top=0;left=0;bottom=0;right=0;collapsible=0;dropTarget=0;fillColor=none;points=[[0,0.5],[1,0.5]];portConstraint=eastwest;strokeColor=inherit;fontSize=16;" parent="HQN57xrEPyGpYtiTeR6K-1" vertex="1">
          <mxGeometry y="120" width="470" height="30" as="geometry" />
        </mxCell>
        <mxCell id="HQN57xrEPyGpYtiTeR6K-15" value="4" style="shape=partialRectangle;html=1;whiteSpace=wrap;connectable=0;fillColor=none;top=0;left=0;bottom=0;right=0;overflow=hidden;strokeColor=inherit;fontSize=16;" parent="HQN57xrEPyGpYtiTeR6K-14" vertex="1">
          <mxGeometry width="104" height="30" as="geometry">
            <mxRectangle width="104" height="30" as="alternateBounds" />
          </mxGeometry>
        </mxCell>
        <mxCell id="HQN57xrEPyGpYtiTeR6K-16" value="apellidos VARCHAR" style="shape=partialRectangle;html=1;whiteSpace=wrap;connectable=0;fillColor=none;top=0;left=0;bottom=0;right=0;align=left;spacingLeft=6;overflow=hidden;strokeColor=inherit;fontSize=16;" parent="HQN57xrEPyGpYtiTeR6K-14" vertex="1">
          <mxGeometry x="104" width="366" height="30" as="geometry">
            <mxRectangle width="366" height="30" as="alternateBounds" />
          </mxGeometry>
        </mxCell>
        <mxCell id="HQN57xrEPyGpYtiTeR6K-17" value="" style="shape=tableRow;horizontal=0;startSize=0;swimlaneHead=0;swimlaneBody=0;top=0;left=0;bottom=0;right=0;collapsible=0;dropTarget=0;fillColor=none;points=[[0,0.5],[1,0.5]];portConstraint=eastwest;strokeColor=inherit;fontSize=16;" parent="HQN57xrEPyGpYtiTeR6K-1" vertex="1">
          <mxGeometry y="150" width="470" height="30" as="geometry" />
        </mxCell>
        <mxCell id="HQN57xrEPyGpYtiTeR6K-18" value="5" style="shape=partialRectangle;html=1;whiteSpace=wrap;connectable=0;fillColor=none;top=0;left=0;bottom=0;right=0;overflow=hidden;strokeColor=inherit;fontSize=16;" parent="HQN57xrEPyGpYtiTeR6K-17" vertex="1">
          <mxGeometry width="104" height="30" as="geometry">
            <mxRectangle width="104" height="30" as="alternateBounds" />
          </mxGeometry>
        </mxCell>
        <mxCell id="HQN57xrEPyGpYtiTeR6K-19" value="domicilio VARCHAR" style="shape=partialRectangle;html=1;whiteSpace=wrap;connectable=0;fillColor=none;top=0;left=0;bottom=0;right=0;align=left;spacingLeft=6;overflow=hidden;strokeColor=inherit;fontSize=16;" parent="HQN57xrEPyGpYtiTeR6K-17" vertex="1">
          <mxGeometry x="104" width="366" height="30" as="geometry">
            <mxRectangle width="366" height="30" as="alternateBounds" />
          </mxGeometry>
        </mxCell>
        <mxCell id="HQN57xrEPyGpYtiTeR6K-20" value="" style="shape=tableRow;horizontal=0;startSize=0;swimlaneHead=0;swimlaneBody=0;top=0;left=0;bottom=0;right=0;collapsible=0;dropTarget=0;fillColor=none;points=[[0,0.5],[1,0.5]];portConstraint=eastwest;strokeColor=inherit;fontSize=16;" parent="HQN57xrEPyGpYtiTeR6K-1" vertex="1">
          <mxGeometry y="180" width="470" height="30" as="geometry" />
        </mxCell>
        <mxCell id="HQN57xrEPyGpYtiTeR6K-21" value="6" style="shape=partialRectangle;html=1;whiteSpace=wrap;connectable=0;fillColor=none;top=0;left=0;bottom=0;right=0;overflow=hidden;strokeColor=inherit;fontSize=16;" parent="HQN57xrEPyGpYtiTeR6K-20" vertex="1">
          <mxGeometry width="104" height="30" as="geometry">
            <mxRectangle width="104" height="30" as="alternateBounds" />
          </mxGeometry>
        </mxCell>
        <mxCell id="HQN57xrEPyGpYtiTeR6K-22" value="cod_postal VARCHAR" style="shape=partialRectangle;html=1;whiteSpace=wrap;connectable=0;fillColor=none;top=0;left=0;bottom=0;right=0;align=left;spacingLeft=6;overflow=hidden;strokeColor=inherit;fontSize=16;" parent="HQN57xrEPyGpYtiTeR6K-20" vertex="1">
          <mxGeometry x="104" width="366" height="30" as="geometry">
            <mxRectangle width="366" height="30" as="alternateBounds" />
          </mxGeometry>
        </mxCell>
        <mxCell id="HQN57xrEPyGpYtiTeR6K-23" value="" style="shape=tableRow;horizontal=0;startSize=0;swimlaneHead=0;swimlaneBody=0;top=0;left=0;bottom=0;right=0;collapsible=0;dropTarget=0;fillColor=none;points=[[0,0.5],[1,0.5]];portConstraint=eastwest;strokeColor=inherit;fontSize=16;" parent="HQN57xrEPyGpYtiTeR6K-1" vertex="1">
          <mxGeometry y="210" width="470" height="30" as="geometry" />
        </mxCell>
        <mxCell id="HQN57xrEPyGpYtiTeR6K-24" value="7" style="shape=partialRectangle;html=1;whiteSpace=wrap;connectable=0;fillColor=none;top=0;left=0;bottom=0;right=0;overflow=hidden;strokeColor=inherit;fontSize=16;" parent="HQN57xrEPyGpYtiTeR6K-23" vertex="1">
          <mxGeometry width="104" height="30" as="geometry">
            <mxRectangle width="104" height="30" as="alternateBounds" />
          </mxGeometry>
        </mxCell>
        <mxCell id="HQN57xrEPyGpYtiTeR6K-25" value="email&amp;nbsp; VARCHAR" style="shape=partialRectangle;html=1;whiteSpace=wrap;connectable=0;fillColor=none;top=0;left=0;bottom=0;right=0;align=left;spacingLeft=6;overflow=hidden;strokeColor=inherit;fontSize=16;" parent="HQN57xrEPyGpYtiTeR6K-23" vertex="1">
          <mxGeometry x="104" width="366" height="30" as="geometry">
            <mxRectangle width="366" height="30" as="alternateBounds" />
          </mxGeometry>
        </mxCell>
        <mxCell id="HQN57xrEPyGpYtiTeR6K-26" value="" style="shape=tableRow;horizontal=0;startSize=0;swimlaneHead=0;swimlaneBody=0;top=0;left=0;bottom=0;right=0;collapsible=0;dropTarget=0;fillColor=none;points=[[0,0.5],[1,0.5]];portConstraint=eastwest;strokeColor=inherit;fontSize=16;" parent="HQN57xrEPyGpYtiTeR6K-1" vertex="1">
          <mxGeometry y="240" width="470" height="30" as="geometry" />
        </mxCell>
        <mxCell id="HQN57xrEPyGpYtiTeR6K-27" value="8" style="shape=partialRectangle;html=1;whiteSpace=wrap;connectable=0;fillColor=none;top=0;left=0;bottom=0;right=0;overflow=hidden;strokeColor=inherit;fontSize=16;" parent="HQN57xrEPyGpYtiTeR6K-26" vertex="1">
          <mxGeometry width="104" height="30" as="geometry">
            <mxRectangle width="104" height="30" as="alternateBounds" />
          </mxGeometry>
        </mxCell>
        <mxCell id="HQN57xrEPyGpYtiTeR6K-28" value="fecha_nac DATE" style="shape=partialRectangle;html=1;whiteSpace=wrap;connectable=0;fillColor=none;top=0;left=0;bottom=0;right=0;align=left;spacingLeft=6;overflow=hidden;strokeColor=inherit;fontSize=16;" parent="HQN57xrEPyGpYtiTeR6K-26" vertex="1">
          <mxGeometry x="104" width="366" height="30" as="geometry">
            <mxRectangle width="366" height="30" as="alternateBounds" />
          </mxGeometry>
        </mxCell>
        <mxCell id="HQN57xrEPyGpYtiTeR6K-54" value="" style="shape=tableRow;horizontal=0;startSize=0;swimlaneHead=0;swimlaneBody=0;top=0;left=0;bottom=0;right=0;collapsible=0;dropTarget=0;fillColor=none;points=[[0,0.5],[1,0.5]];portConstraint=eastwest;strokeColor=inherit;fontSize=16;" parent="HQN57xrEPyGpYtiTeR6K-1" vertex="1">
          <mxGeometry y="270" width="470" height="30" as="geometry" />
        </mxCell>
        <mxCell id="HQN57xrEPyGpYtiTeR6K-55" value="9" style="shape=partialRectangle;html=1;whiteSpace=wrap;connectable=0;fillColor=none;top=0;left=0;bottom=0;right=0;overflow=hidden;strokeColor=inherit;fontSize=16;" parent="HQN57xrEPyGpYtiTeR6K-54" vertex="1">
          <mxGeometry width="104" height="30" as="geometry">
            <mxRectangle width="104" height="30" as="alternateBounds" />
          </mxGeometry>
        </mxCell>
        <mxCell id="HQN57xrEPyGpYtiTeR6K-56" value="num_tarjeta VARCHAR" style="shape=partialRectangle;html=1;whiteSpace=wrap;connectable=0;fillColor=none;top=0;left=0;bottom=0;right=0;align=left;spacingLeft=6;overflow=hidden;strokeColor=inherit;fontSize=16;" parent="HQN57xrEPyGpYtiTeR6K-54" vertex="1">
          <mxGeometry x="104" width="366" height="30" as="geometry">
            <mxRectangle width="366" height="30" as="alternateBounds" />
          </mxGeometry>
        </mxCell>
        <mxCell id="HQN57xrEPyGpYtiTeR6K-265" value="" style="shape=tableRow;horizontal=0;startSize=0;swimlaneHead=0;swimlaneBody=0;top=0;left=0;bottom=0;right=0;collapsible=0;dropTarget=0;fillColor=none;points=[[0,0.5],[1,0.5]];portConstraint=eastwest;strokeColor=inherit;fontSize=16;" parent="HQN57xrEPyGpYtiTeR6K-1" vertex="1">
          <mxGeometry y="300" width="470" height="30" as="geometry" />
        </mxCell>
        <mxCell id="HQN57xrEPyGpYtiTeR6K-266" value="10" style="shape=partialRectangle;html=1;whiteSpace=wrap;connectable=0;fillColor=none;top=0;left=0;bottom=0;right=0;overflow=hidden;strokeColor=inherit;fontSize=16;" parent="HQN57xrEPyGpYtiTeR6K-265" vertex="1">
          <mxGeometry width="104" height="30" as="geometry">
            <mxRectangle width="104" height="30" as="alternateBounds" />
          </mxGeometry>
        </mxCell>
        <mxCell id="HQN57xrEPyGpYtiTeR6K-267" value="changedTS TIMESTAMP" style="shape=partialRectangle;html=1;whiteSpace=wrap;connectable=0;fillColor=none;top=0;left=0;bottom=0;right=0;align=left;spacingLeft=6;overflow=hidden;strokeColor=inherit;fontSize=16;" parent="HQN57xrEPyGpYtiTeR6K-265" vertex="1">
          <mxGeometry x="104" width="366" height="30" as="geometry">
            <mxRectangle width="366" height="30" as="alternateBounds" />
          </mxGeometry>
        </mxCell>
        <mxCell id="3QBo7tCKn3bmK9ghBPKZ-17" style="edgeStyle=orthogonalEdgeStyle;rounded=0;orthogonalLoop=1;jettySize=auto;html=1;entryX=0.5;entryY=0;entryDx=0;entryDy=0;" parent="1" source="HQN57xrEPyGpYtiTeR6K-57" target="HQN57xrEPyGpYtiTeR6K-98" edge="1">
          <mxGeometry relative="1" as="geometry">
            <Array as="points">
              <mxPoint x="1206" y="1480" />
              <mxPoint x="685" y="1480" />
            </Array>
          </mxGeometry>
        </mxCell>
        <mxCell id="HQN57xrEPyGpYtiTeR6K-57" value="CONTENIDO" style="shape=table;startSize=30;container=1;collapsible=0;childLayout=tableLayout;fixedRows=1;rowLines=0;fontStyle=0;strokeColor=default;fontSize=16;" parent="1" vertex="1">
          <mxGeometry x="1041" y="1080" width="330" height="350" as="geometry" />
        </mxCell>
        <mxCell id="HQN57xrEPyGpYtiTeR6K-58" value="" style="shape=tableRow;horizontal=0;startSize=0;swimlaneHead=0;swimlaneBody=0;top=0;left=0;bottom=0;right=0;collapsible=0;dropTarget=0;fillColor=none;points=[[0,0.5],[1,0.5]];portConstraint=eastwest;strokeColor=inherit;fontSize=16;" parent="HQN57xrEPyGpYtiTeR6K-57" vertex="1">
          <mxGeometry y="30" width="330" height="30" as="geometry" />
        </mxCell>
        <mxCell id="HQN57xrEPyGpYtiTeR6K-59" value="1" style="shape=partialRectangle;html=1;whiteSpace=wrap;connectable=0;fillColor=none;top=0;left=0;bottom=0;right=0;overflow=hidden;pointerEvents=1;strokeColor=inherit;fontSize=16;" parent="HQN57xrEPyGpYtiTeR6K-58" vertex="1">
          <mxGeometry width="74" height="30" as="geometry">
            <mxRectangle width="74" height="30" as="alternateBounds" />
          </mxGeometry>
        </mxCell>
        <mxCell id="HQN57xrEPyGpYtiTeR6K-60" value="id INT PRIMARY KEY" style="shape=partialRectangle;html=1;whiteSpace=wrap;connectable=0;fillColor=none;top=0;left=0;bottom=0;right=0;align=left;spacingLeft=6;overflow=hidden;strokeColor=inherit;fontSize=16;" parent="HQN57xrEPyGpYtiTeR6K-58" vertex="1">
          <mxGeometry x="74" width="256" height="30" as="geometry">
            <mxRectangle width="256" height="30" as="alternateBounds" />
          </mxGeometry>
        </mxCell>
        <mxCell id="HQN57xrEPyGpYtiTeR6K-61" value="" style="shape=tableRow;horizontal=0;startSize=0;swimlaneHead=0;swimlaneBody=0;top=0;left=0;bottom=0;right=0;collapsible=0;dropTarget=0;fillColor=none;points=[[0,0.5],[1,0.5]];portConstraint=eastwest;strokeColor=inherit;fontSize=16;" parent="HQN57xrEPyGpYtiTeR6K-57" vertex="1">
          <mxGeometry y="60" width="330" height="30" as="geometry" />
        </mxCell>
        <mxCell id="HQN57xrEPyGpYtiTeR6K-62" value="2" style="shape=partialRectangle;html=1;whiteSpace=wrap;connectable=0;fillColor=none;top=0;left=0;bottom=0;right=0;overflow=hidden;strokeColor=inherit;fontSize=16;" parent="HQN57xrEPyGpYtiTeR6K-61" vertex="1">
          <mxGeometry width="74" height="30" as="geometry">
            <mxRectangle width="74" height="30" as="alternateBounds" />
          </mxGeometry>
        </mxCell>
        <mxCell id="HQN57xrEPyGpYtiTeR6K-63" value="tarifa_id INT FOREIGN KEY" style="shape=partialRectangle;html=1;whiteSpace=wrap;connectable=0;fillColor=none;top=0;left=0;bottom=0;right=0;align=left;spacingLeft=6;overflow=hidden;strokeColor=inherit;fontSize=16;" parent="HQN57xrEPyGpYtiTeR6K-61" vertex="1">
          <mxGeometry x="74" width="256" height="30" as="geometry">
            <mxRectangle width="256" height="30" as="alternateBounds" />
          </mxGeometry>
        </mxCell>
        <mxCell id="HQN57xrEPyGpYtiTeR6K-64" value="" style="shape=tableRow;horizontal=0;startSize=0;swimlaneHead=0;swimlaneBody=0;top=0;left=0;bottom=0;right=0;collapsible=0;dropTarget=0;fillColor=none;points=[[0,0.5],[1,0.5]];portConstraint=eastwest;strokeColor=inherit;fontSize=16;" parent="HQN57xrEPyGpYtiTeR6K-57" vertex="1">
          <mxGeometry y="90" width="330" height="30" as="geometry" />
        </mxCell>
        <mxCell id="HQN57xrEPyGpYtiTeR6K-65" value="3" style="shape=partialRectangle;html=1;whiteSpace=wrap;connectable=0;fillColor=none;top=0;left=0;bottom=0;right=0;overflow=hidden;strokeColor=inherit;fontSize=16;" parent="HQN57xrEPyGpYtiTeR6K-64" vertex="1">
          <mxGeometry width="74" height="30" as="geometry">
            <mxRectangle width="74" height="30" as="alternateBounds" />
          </mxGeometry>
        </mxCell>
        <mxCell id="HQN57xrEPyGpYtiTeR6K-66" value="genero VARCHAR" style="shape=partialRectangle;html=1;whiteSpace=wrap;connectable=0;fillColor=none;top=0;left=0;bottom=0;right=0;align=left;spacingLeft=6;overflow=hidden;strokeColor=inherit;fontSize=16;" parent="HQN57xrEPyGpYtiTeR6K-64" vertex="1">
          <mxGeometry x="74" width="256" height="30" as="geometry">
            <mxRectangle width="256" height="30" as="alternateBounds" />
          </mxGeometry>
        </mxCell>
        <mxCell id="HQN57xrEPyGpYtiTeR6K-67" value="" style="shape=tableRow;horizontal=0;startSize=0;swimlaneHead=0;swimlaneBody=0;top=0;left=0;bottom=0;right=0;collapsible=0;dropTarget=0;fillColor=none;points=[[0,0.5],[1,0.5]];portConstraint=eastwest;strokeColor=inherit;fontSize=16;" parent="HQN57xrEPyGpYtiTeR6K-57" vertex="1">
          <mxGeometry y="120" width="330" height="30" as="geometry" />
        </mxCell>
        <mxCell id="HQN57xrEPyGpYtiTeR6K-68" value="4" style="shape=partialRectangle;html=1;whiteSpace=wrap;connectable=0;fillColor=none;top=0;left=0;bottom=0;right=0;overflow=hidden;strokeColor=inherit;fontSize=16;" parent="HQN57xrEPyGpYtiTeR6K-67" vertex="1">
          <mxGeometry width="74" height="30" as="geometry">
            <mxRectangle width="74" height="30" as="alternateBounds" />
          </mxGeometry>
        </mxCell>
        <mxCell id="HQN57xrEPyGpYtiTeR6K-69" value="descripcion VARCHAR" style="shape=partialRectangle;html=1;whiteSpace=wrap;connectable=0;fillColor=none;top=0;left=0;bottom=0;right=0;align=left;spacingLeft=6;overflow=hidden;strokeColor=inherit;fontSize=16;" parent="HQN57xrEPyGpYtiTeR6K-67" vertex="1">
          <mxGeometry x="74" width="256" height="30" as="geometry">
            <mxRectangle width="256" height="30" as="alternateBounds" />
          </mxGeometry>
        </mxCell>
        <mxCell id="HQN57xrEPyGpYtiTeR6K-70" value="" style="shape=tableRow;horizontal=0;startSize=0;swimlaneHead=0;swimlaneBody=0;top=0;left=0;bottom=0;right=0;collapsible=0;dropTarget=0;fillColor=none;points=[[0,0.5],[1,0.5]];portConstraint=eastwest;strokeColor=inherit;fontSize=16;" parent="HQN57xrEPyGpYtiTeR6K-57" vertex="1">
          <mxGeometry y="150" width="330" height="30" as="geometry" />
        </mxCell>
        <mxCell id="HQN57xrEPyGpYtiTeR6K-71" value="5" style="shape=partialRectangle;html=1;whiteSpace=wrap;connectable=0;fillColor=none;top=0;left=0;bottom=0;right=0;overflow=hidden;strokeColor=inherit;fontSize=16;" parent="HQN57xrEPyGpYtiTeR6K-70" vertex="1">
          <mxGeometry width="74" height="30" as="geometry">
            <mxRectangle width="74" height="30" as="alternateBounds" />
          </mxGeometry>
        </mxCell>
        <mxCell id="HQN57xrEPyGpYtiTeR6K-72" value="nombre_dir VARCHAR" style="shape=partialRectangle;html=1;whiteSpace=wrap;connectable=0;fillColor=none;top=0;left=0;bottom=0;right=0;align=left;spacingLeft=6;overflow=hidden;strokeColor=inherit;fontSize=16;" parent="HQN57xrEPyGpYtiTeR6K-70" vertex="1">
          <mxGeometry x="74" width="256" height="30" as="geometry">
            <mxRectangle width="256" height="30" as="alternateBounds" />
          </mxGeometry>
        </mxCell>
        <mxCell id="HQN57xrEPyGpYtiTeR6K-73" value="" style="shape=tableRow;horizontal=0;startSize=0;swimlaneHead=0;swimlaneBody=0;top=0;left=0;bottom=0;right=0;collapsible=0;dropTarget=0;fillColor=none;points=[[0,0.5],[1,0.5]];portConstraint=eastwest;strokeColor=inherit;fontSize=16;" parent="HQN57xrEPyGpYtiTeR6K-57" vertex="1">
          <mxGeometry y="180" width="330" height="30" as="geometry" />
        </mxCell>
        <mxCell id="HQN57xrEPyGpYtiTeR6K-74" value="6" style="shape=partialRectangle;html=1;whiteSpace=wrap;connectable=0;fillColor=none;top=0;left=0;bottom=0;right=0;overflow=hidden;strokeColor=inherit;fontSize=16;" parent="HQN57xrEPyGpYtiTeR6K-73" vertex="1">
          <mxGeometry width="74" height="30" as="geometry">
            <mxRectangle width="74" height="30" as="alternateBounds" />
          </mxGeometry>
        </mxCell>
        <mxCell id="HQN57xrEPyGpYtiTeR6K-75" value="duracion INT (por minutos)" style="shape=partialRectangle;html=1;whiteSpace=wrap;connectable=0;fillColor=none;top=0;left=0;bottom=0;right=0;align=left;spacingLeft=6;overflow=hidden;strokeColor=inherit;fontSize=16;" parent="HQN57xrEPyGpYtiTeR6K-73" vertex="1">
          <mxGeometry x="74" width="256" height="30" as="geometry">
            <mxRectangle width="256" height="30" as="alternateBounds" />
          </mxGeometry>
        </mxCell>
        <mxCell id="HQN57xrEPyGpYtiTeR6K-76" value="" style="shape=tableRow;horizontal=0;startSize=0;swimlaneHead=0;swimlaneBody=0;top=0;left=0;bottom=0;right=0;collapsible=0;dropTarget=0;fillColor=none;points=[[0,0.5],[1,0.5]];portConstraint=eastwest;strokeColor=inherit;fontSize=16;" parent="HQN57xrEPyGpYtiTeR6K-57" vertex="1">
          <mxGeometry y="210" width="330" height="30" as="geometry" />
        </mxCell>
        <mxCell id="HQN57xrEPyGpYtiTeR6K-77" value="7" style="shape=partialRectangle;html=1;whiteSpace=wrap;connectable=0;fillColor=none;top=0;left=0;bottom=0;right=0;overflow=hidden;strokeColor=inherit;fontSize=16;" parent="HQN57xrEPyGpYtiTeR6K-76" vertex="1">
          <mxGeometry width="74" height="30" as="geometry">
            <mxRectangle width="74" height="30" as="alternateBounds" />
          </mxGeometry>
        </mxCell>
        <mxCell id="HQN57xrEPyGpYtiTeR6K-78" value="actores_principales VARCHAR" style="shape=partialRectangle;html=1;whiteSpace=wrap;connectable=0;fillColor=none;top=0;left=0;bottom=0;right=0;align=left;spacingLeft=6;overflow=hidden;strokeColor=inherit;fontSize=16;" parent="HQN57xrEPyGpYtiTeR6K-76" vertex="1">
          <mxGeometry x="74" width="256" height="30" as="geometry">
            <mxRectangle width="256" height="30" as="alternateBounds" />
          </mxGeometry>
        </mxCell>
        <mxCell id="HQN57xrEPyGpYtiTeR6K-79" value="" style="shape=tableRow;horizontal=0;startSize=0;swimlaneHead=0;swimlaneBody=0;top=0;left=0;bottom=0;right=0;collapsible=0;dropTarget=0;fillColor=none;points=[[0,0.5],[1,0.5]];portConstraint=eastwest;strokeColor=inherit;fontSize=16;" parent="HQN57xrEPyGpYtiTeR6K-57" vertex="1">
          <mxGeometry y="240" width="330" height="30" as="geometry" />
        </mxCell>
        <mxCell id="HQN57xrEPyGpYtiTeR6K-80" value="8" style="shape=partialRectangle;html=1;whiteSpace=wrap;connectable=0;fillColor=none;top=0;left=0;bottom=0;right=0;overflow=hidden;strokeColor=inherit;fontSize=16;" parent="HQN57xrEPyGpYtiTeR6K-79" vertex="1">
          <mxGeometry width="74" height="30" as="geometry">
            <mxRectangle width="74" height="30" as="alternateBounds" />
          </mxGeometry>
        </mxCell>
        <mxCell id="HQN57xrEPyGpYtiTeR6K-81" value="fecha_estreno DATE" style="shape=partialRectangle;html=1;whiteSpace=wrap;connectable=0;fillColor=none;top=0;left=0;bottom=0;right=0;align=left;spacingLeft=6;overflow=hidden;strokeColor=inherit;fontSize=16;" parent="HQN57xrEPyGpYtiTeR6K-79" vertex="1">
          <mxGeometry x="74" width="256" height="30" as="geometry">
            <mxRectangle width="256" height="30" as="alternateBounds" />
          </mxGeometry>
        </mxCell>
        <mxCell id="HQN57xrEPyGpYtiTeR6K-82" value="" style="shape=tableRow;horizontal=0;startSize=0;swimlaneHead=0;swimlaneBody=0;top=0;left=0;bottom=0;right=0;collapsible=0;dropTarget=0;fillColor=none;points=[[0,0.5],[1,0.5]];portConstraint=eastwest;strokeColor=inherit;fontSize=16;" parent="HQN57xrEPyGpYtiTeR6K-57" vertex="1">
          <mxGeometry y="270" width="330" height="30" as="geometry" />
        </mxCell>
        <mxCell id="HQN57xrEPyGpYtiTeR6K-83" value="9" style="shape=partialRectangle;html=1;whiteSpace=wrap;connectable=0;fillColor=none;top=0;left=0;bottom=0;right=0;overflow=hidden;strokeColor=inherit;fontSize=16;" parent="HQN57xrEPyGpYtiTeR6K-82" vertex="1">
          <mxGeometry width="74" height="30" as="geometry">
            <mxRectangle width="74" height="30" as="alternateBounds" />
          </mxGeometry>
        </mxCell>
        <mxCell id="HQN57xrEPyGpYtiTeR6K-84" value="puntuacion_media INT" style="shape=partialRectangle;html=1;whiteSpace=wrap;connectable=0;fillColor=none;top=0;left=0;bottom=0;right=0;align=left;spacingLeft=6;overflow=hidden;strokeColor=inherit;fontSize=16;" parent="HQN57xrEPyGpYtiTeR6K-82" vertex="1">
          <mxGeometry x="74" width="256" height="30" as="geometry">
            <mxRectangle width="256" height="30" as="alternateBounds" />
          </mxGeometry>
        </mxCell>
        <mxCell id="HQN57xrEPyGpYtiTeR6K-85" value="" style="shape=tableRow;horizontal=0;startSize=0;swimlaneHead=0;swimlaneBody=0;top=0;left=0;bottom=0;right=0;collapsible=0;dropTarget=0;fillColor=none;points=[[0,0.5],[1,0.5]];portConstraint=eastwest;strokeColor=inherit;fontSize=16;" parent="HQN57xrEPyGpYtiTeR6K-57" vertex="1">
          <mxGeometry y="300" width="330" height="30" as="geometry" />
        </mxCell>
        <mxCell id="HQN57xrEPyGpYtiTeR6K-86" value="10" style="shape=partialRectangle;html=1;whiteSpace=wrap;connectable=0;fillColor=none;top=0;left=0;bottom=0;right=0;overflow=hidden;strokeColor=inherit;fontSize=16;" parent="HQN57xrEPyGpYtiTeR6K-85" vertex="1">
          <mxGeometry width="74" height="30" as="geometry">
            <mxRectangle width="74" height="30" as="alternateBounds" />
          </mxGeometry>
        </mxCell>
        <mxCell id="HQN57xrEPyGpYtiTeR6K-87" value="changedTS TIMESTAMP" style="shape=partialRectangle;html=1;whiteSpace=wrap;connectable=0;fillColor=none;top=0;left=0;bottom=0;right=0;align=left;spacingLeft=6;overflow=hidden;strokeColor=inherit;fontSize=16;" parent="HQN57xrEPyGpYtiTeR6K-85" vertex="1">
          <mxGeometry x="74" width="256" height="30" as="geometry">
            <mxRectangle width="256" height="30" as="alternateBounds" />
          </mxGeometry>
        </mxCell>
        <mxCell id="HQN57xrEPyGpYtiTeR6K-221" value="" style="shape=tableRow;horizontal=0;startSize=0;swimlaneHead=0;swimlaneBody=0;top=0;left=0;bottom=0;right=0;collapsible=0;dropTarget=0;fillColor=none;points=[[0,0.5],[1,0.5]];portConstraint=eastwest;strokeColor=inherit;fontSize=16;" parent="HQN57xrEPyGpYtiTeR6K-57" vertex="1">
          <mxGeometry y="330" width="330" height="20" as="geometry" />
        </mxCell>
        <mxCell id="HQN57xrEPyGpYtiTeR6K-222" value="" style="shape=partialRectangle;html=1;whiteSpace=wrap;connectable=0;fillColor=none;top=0;left=0;bottom=0;right=0;overflow=hidden;strokeColor=inherit;fontSize=16;" parent="HQN57xrEPyGpYtiTeR6K-221" vertex="1">
          <mxGeometry width="74" height="20" as="geometry">
            <mxRectangle width="74" height="20" as="alternateBounds" />
          </mxGeometry>
        </mxCell>
        <mxCell id="HQN57xrEPyGpYtiTeR6K-223" value="" style="shape=partialRectangle;html=1;whiteSpace=wrap;connectable=0;fillColor=none;top=0;left=0;bottom=0;right=0;align=left;spacingLeft=6;overflow=hidden;strokeColor=inherit;fontSize=16;" parent="HQN57xrEPyGpYtiTeR6K-221" vertex="1">
          <mxGeometry x="74" width="256" height="20" as="geometry">
            <mxRectangle width="256" height="20" as="alternateBounds" />
          </mxGeometry>
        </mxCell>
        <mxCell id="HQN57xrEPyGpYtiTeR6K-88" value="PELICULA" style="shape=table;startSize=30;container=1;collapsible=0;childLayout=tableLayout;fixedRows=1;rowLines=0;fontStyle=0;strokeColor=default;fontSize=16;" parent="1" vertex="1">
          <mxGeometry x="961" y="1580" width="490" height="150" as="geometry" />
        </mxCell>
        <mxCell id="HQN57xrEPyGpYtiTeR6K-89" value="" style="shape=tableRow;horizontal=0;startSize=0;swimlaneHead=0;swimlaneBody=0;top=0;left=0;bottom=0;right=0;collapsible=0;dropTarget=0;fillColor=none;points=[[0,0.5],[1,0.5]];portConstraint=eastwest;strokeColor=inherit;fontSize=16;" parent="HQN57xrEPyGpYtiTeR6K-88" vertex="1">
          <mxGeometry y="30" width="490" height="30" as="geometry" />
        </mxCell>
        <mxCell id="HQN57xrEPyGpYtiTeR6K-90" value="1" style="shape=partialRectangle;html=1;whiteSpace=wrap;connectable=0;fillColor=none;top=0;left=0;bottom=0;right=0;overflow=hidden;pointerEvents=1;strokeColor=inherit;fontSize=16;" parent="HQN57xrEPyGpYtiTeR6K-89" vertex="1">
          <mxGeometry width="109" height="30" as="geometry">
            <mxRectangle width="109" height="30" as="alternateBounds" />
          </mxGeometry>
        </mxCell>
        <mxCell id="HQN57xrEPyGpYtiTeR6K-91" value="contenido_id INT PRIMARY KEY/FOREIGN KEY" style="shape=partialRectangle;html=1;whiteSpace=wrap;connectable=0;fillColor=none;top=0;left=0;bottom=0;right=0;align=left;spacingLeft=6;overflow=hidden;strokeColor=inherit;fontSize=16;" parent="HQN57xrEPyGpYtiTeR6K-89" vertex="1">
          <mxGeometry x="109" width="381" height="30" as="geometry">
            <mxRectangle width="381" height="30" as="alternateBounds" />
          </mxGeometry>
        </mxCell>
        <mxCell id="HQN57xrEPyGpYtiTeR6K-92" value="" style="shape=tableRow;horizontal=0;startSize=0;swimlaneHead=0;swimlaneBody=0;top=0;left=0;bottom=0;right=0;collapsible=0;dropTarget=0;fillColor=none;points=[[0,0.5],[1,0.5]];portConstraint=eastwest;strokeColor=inherit;fontSize=16;" parent="HQN57xrEPyGpYtiTeR6K-88" vertex="1">
          <mxGeometry y="60" width="490" height="30" as="geometry" />
        </mxCell>
        <mxCell id="HQN57xrEPyGpYtiTeR6K-93" value="2" style="shape=partialRectangle;html=1;whiteSpace=wrap;connectable=0;fillColor=none;top=0;left=0;bottom=0;right=0;overflow=hidden;strokeColor=inherit;fontSize=16;" parent="HQN57xrEPyGpYtiTeR6K-92" vertex="1">
          <mxGeometry width="109" height="30" as="geometry">
            <mxRectangle width="109" height="30" as="alternateBounds" />
          </mxGeometry>
        </mxCell>
        <mxCell id="HQN57xrEPyGpYtiTeR6K-94" value="disponible_hasta DATE" style="shape=partialRectangle;html=1;whiteSpace=wrap;connectable=0;fillColor=none;top=0;left=0;bottom=0;right=0;align=left;spacingLeft=6;overflow=hidden;strokeColor=inherit;fontSize=16;" parent="HQN57xrEPyGpYtiTeR6K-92" vertex="1">
          <mxGeometry x="109" width="381" height="30" as="geometry">
            <mxRectangle width="381" height="30" as="alternateBounds" />
          </mxGeometry>
        </mxCell>
        <mxCell id="HQN57xrEPyGpYtiTeR6K-95" value="" style="shape=tableRow;horizontal=0;startSize=0;swimlaneHead=0;swimlaneBody=0;top=0;left=0;bottom=0;right=0;collapsible=0;dropTarget=0;fillColor=none;points=[[0,0.5],[1,0.5]];portConstraint=eastwest;strokeColor=inherit;fontSize=16;" parent="HQN57xrEPyGpYtiTeR6K-88" vertex="1">
          <mxGeometry y="90" width="490" height="30" as="geometry" />
        </mxCell>
        <mxCell id="HQN57xrEPyGpYtiTeR6K-96" value="3" style="shape=partialRectangle;html=1;whiteSpace=wrap;connectable=0;fillColor=none;top=0;left=0;bottom=0;right=0;overflow=hidden;strokeColor=inherit;fontSize=16;" parent="HQN57xrEPyGpYtiTeR6K-95" vertex="1">
          <mxGeometry width="109" height="30" as="geometry">
            <mxRectangle width="109" height="30" as="alternateBounds" />
          </mxGeometry>
        </mxCell>
        <mxCell id="HQN57xrEPyGpYtiTeR6K-97" value="precio DECIMAL (10 ,2)" style="shape=partialRectangle;html=1;whiteSpace=wrap;connectable=0;fillColor=none;top=0;left=0;bottom=0;right=0;align=left;spacingLeft=6;overflow=hidden;strokeColor=inherit;fontSize=16;" parent="HQN57xrEPyGpYtiTeR6K-95" vertex="1">
          <mxGeometry x="109" width="381" height="30" as="geometry">
            <mxRectangle width="381" height="30" as="alternateBounds" />
          </mxGeometry>
        </mxCell>
        <mxCell id="3QBo7tCKn3bmK9ghBPKZ-11" value="" style="shape=tableRow;horizontal=0;startSize=0;swimlaneHead=0;swimlaneBody=0;top=0;left=0;bottom=0;right=0;collapsible=0;dropTarget=0;fillColor=none;points=[[0,0.5],[1,0.5]];portConstraint=eastwest;strokeColor=inherit;fontSize=16;" parent="HQN57xrEPyGpYtiTeR6K-88" vertex="1">
          <mxGeometry y="120" width="490" height="30" as="geometry" />
        </mxCell>
        <mxCell id="3QBo7tCKn3bmK9ghBPKZ-12" value="4" style="shape=partialRectangle;html=1;whiteSpace=wrap;connectable=0;fillColor=none;top=0;left=0;bottom=0;right=0;overflow=hidden;strokeColor=inherit;fontSize=16;" parent="3QBo7tCKn3bmK9ghBPKZ-11" vertex="1">
          <mxGeometry width="109" height="30" as="geometry">
            <mxRectangle width="109" height="30" as="alternateBounds" />
          </mxGeometry>
        </mxCell>
        <mxCell id="3QBo7tCKn3bmK9ghBPKZ-13" value="changedTS TIMESTAMP" style="shape=partialRectangle;html=1;whiteSpace=wrap;connectable=0;fillColor=none;top=0;left=0;bottom=0;right=0;align=left;spacingLeft=6;overflow=hidden;strokeColor=inherit;fontSize=16;" parent="3QBo7tCKn3bmK9ghBPKZ-11" vertex="1">
          <mxGeometry x="109" width="381" height="30" as="geometry">
            <mxRectangle width="381" height="30" as="alternateBounds" />
          </mxGeometry>
        </mxCell>
        <mxCell id="HQN57xrEPyGpYtiTeR6K-108" value="CAPITULO" style="shape=table;startSize=30;container=1;collapsible=0;childLayout=tableLayout;fixedRows=1;rowLines=0;fontStyle=0;strokeColor=default;fontSize=16;" parent="1" vertex="1">
          <mxGeometry x="452" y="1820" width="466" height="180" as="geometry" />
        </mxCell>
        <mxCell id="HQN57xrEPyGpYtiTeR6K-109" value="" style="shape=tableRow;horizontal=0;startSize=0;swimlaneHead=0;swimlaneBody=0;top=0;left=0;bottom=0;right=0;collapsible=0;dropTarget=0;fillColor=none;points=[[0,0.5],[1,0.5]];portConstraint=eastwest;strokeColor=inherit;fontSize=16;" parent="HQN57xrEPyGpYtiTeR6K-108" vertex="1">
          <mxGeometry y="30" width="466" height="30" as="geometry" />
        </mxCell>
        <mxCell id="HQN57xrEPyGpYtiTeR6K-110" value="1" style="shape=partialRectangle;html=1;whiteSpace=wrap;connectable=0;fillColor=none;top=0;left=0;bottom=0;right=0;overflow=hidden;pointerEvents=1;strokeColor=inherit;fontSize=16;" parent="HQN57xrEPyGpYtiTeR6K-109" vertex="1">
          <mxGeometry width="104" height="30" as="geometry">
            <mxRectangle width="104" height="30" as="alternateBounds" />
          </mxGeometry>
        </mxCell>
        <mxCell id="HQN57xrEPyGpYtiTeR6K-111" value="serie_id INT PRIMARY KEY/FOREIGN KEY" style="shape=partialRectangle;html=1;whiteSpace=wrap;connectable=0;fillColor=none;top=0;left=0;bottom=0;right=0;align=left;spacingLeft=6;overflow=hidden;strokeColor=inherit;fontSize=16;" parent="HQN57xrEPyGpYtiTeR6K-109" vertex="1">
          <mxGeometry x="104" width="362" height="30" as="geometry">
            <mxRectangle width="362" height="30" as="alternateBounds" />
          </mxGeometry>
        </mxCell>
        <mxCell id="HQN57xrEPyGpYtiTeR6K-112" value="" style="shape=tableRow;horizontal=0;startSize=0;swimlaneHead=0;swimlaneBody=0;top=0;left=0;bottom=0;right=0;collapsible=0;dropTarget=0;fillColor=none;points=[[0,0.5],[1,0.5]];portConstraint=eastwest;strokeColor=inherit;fontSize=16;" parent="HQN57xrEPyGpYtiTeR6K-108" vertex="1">
          <mxGeometry y="60" width="466" height="30" as="geometry" />
        </mxCell>
        <mxCell id="HQN57xrEPyGpYtiTeR6K-113" value="2" style="shape=partialRectangle;html=1;whiteSpace=wrap;connectable=0;fillColor=none;top=0;left=0;bottom=0;right=0;overflow=hidden;strokeColor=inherit;fontSize=16;" parent="HQN57xrEPyGpYtiTeR6K-112" vertex="1">
          <mxGeometry width="104" height="30" as="geometry">
            <mxRectangle width="104" height="30" as="alternateBounds" />
          </mxGeometry>
        </mxCell>
        <mxCell id="HQN57xrEPyGpYtiTeR6K-114" value="titulo VARCHAR" style="shape=partialRectangle;html=1;whiteSpace=wrap;connectable=0;fillColor=none;top=0;left=0;bottom=0;right=0;align=left;spacingLeft=6;overflow=hidden;strokeColor=inherit;fontSize=16;" parent="HQN57xrEPyGpYtiTeR6K-112" vertex="1">
          <mxGeometry x="104" width="362" height="30" as="geometry">
            <mxRectangle width="362" height="30" as="alternateBounds" />
          </mxGeometry>
        </mxCell>
        <mxCell id="HQN57xrEPyGpYtiTeR6K-115" value="" style="shape=tableRow;horizontal=0;startSize=0;swimlaneHead=0;swimlaneBody=0;top=0;left=0;bottom=0;right=0;collapsible=0;dropTarget=0;fillColor=none;points=[[0,0.5],[1,0.5]];portConstraint=eastwest;strokeColor=inherit;fontSize=16;" parent="HQN57xrEPyGpYtiTeR6K-108" vertex="1">
          <mxGeometry y="90" width="466" height="30" as="geometry" />
        </mxCell>
        <mxCell id="HQN57xrEPyGpYtiTeR6K-116" value="3" style="shape=partialRectangle;html=1;whiteSpace=wrap;connectable=0;fillColor=none;top=0;left=0;bottom=0;right=0;overflow=hidden;strokeColor=inherit;fontSize=16;" parent="HQN57xrEPyGpYtiTeR6K-115" vertex="1">
          <mxGeometry width="104" height="30" as="geometry">
            <mxRectangle width="104" height="30" as="alternateBounds" />
          </mxGeometry>
        </mxCell>
        <mxCell id="HQN57xrEPyGpYtiTeR6K-117" value="precio DECIMAL (10,2)" style="shape=partialRectangle;html=1;whiteSpace=wrap;connectable=0;fillColor=none;top=0;left=0;bottom=0;right=0;align=left;spacingLeft=6;overflow=hidden;strokeColor=inherit;fontSize=16;" parent="HQN57xrEPyGpYtiTeR6K-115" vertex="1">
          <mxGeometry x="104" width="362" height="30" as="geometry">
            <mxRectangle width="362" height="30" as="alternateBounds" />
          </mxGeometry>
        </mxCell>
        <mxCell id="HQN57xrEPyGpYtiTeR6K-128" value="" style="shape=tableRow;horizontal=0;startSize=0;swimlaneHead=0;swimlaneBody=0;top=0;left=0;bottom=0;right=0;collapsible=0;dropTarget=0;fillColor=none;points=[[0,0.5],[1,0.5]];portConstraint=eastwest;strokeColor=inherit;fontSize=16;" parent="HQN57xrEPyGpYtiTeR6K-108" vertex="1">
          <mxGeometry y="120" width="466" height="30" as="geometry" />
        </mxCell>
        <mxCell id="HQN57xrEPyGpYtiTeR6K-129" value="4" style="shape=partialRectangle;html=1;whiteSpace=wrap;connectable=0;fillColor=none;top=0;left=0;bottom=0;right=0;overflow=hidden;strokeColor=inherit;fontSize=16;" parent="HQN57xrEPyGpYtiTeR6K-128" vertex="1">
          <mxGeometry width="104" height="30" as="geometry">
            <mxRectangle width="104" height="30" as="alternateBounds" />
          </mxGeometry>
        </mxCell>
        <mxCell id="HQN57xrEPyGpYtiTeR6K-130" value="serie_id INT PRIMARY KEY/FOREIGN KEY" style="shape=partialRectangle;html=1;whiteSpace=wrap;connectable=0;fillColor=none;top=0;left=0;bottom=0;right=0;align=left;spacingLeft=6;overflow=hidden;strokeColor=inherit;fontSize=16;" parent="HQN57xrEPyGpYtiTeR6K-128" vertex="1">
          <mxGeometry x="104" width="362" height="30" as="geometry">
            <mxRectangle width="362" height="30" as="alternateBounds" />
          </mxGeometry>
        </mxCell>
        <mxCell id="HQN57xrEPyGpYtiTeR6K-232" value="" style="shape=tableRow;horizontal=0;startSize=0;swimlaneHead=0;swimlaneBody=0;top=0;left=0;bottom=0;right=0;collapsible=0;dropTarget=0;fillColor=none;points=[[0,0.5],[1,0.5]];portConstraint=eastwest;strokeColor=inherit;fontSize=16;" parent="HQN57xrEPyGpYtiTeR6K-108" vertex="1">
          <mxGeometry y="150" width="466" height="30" as="geometry" />
        </mxCell>
        <mxCell id="HQN57xrEPyGpYtiTeR6K-233" value="5" style="shape=partialRectangle;html=1;whiteSpace=wrap;connectable=0;fillColor=none;top=0;left=0;bottom=0;right=0;overflow=hidden;strokeColor=inherit;fontSize=16;" parent="HQN57xrEPyGpYtiTeR6K-232" vertex="1">
          <mxGeometry width="104" height="30" as="geometry">
            <mxRectangle width="104" height="30" as="alternateBounds" />
          </mxGeometry>
        </mxCell>
        <mxCell id="HQN57xrEPyGpYtiTeR6K-234" value="changedTS TIMESTAMP" style="shape=partialRectangle;html=1;whiteSpace=wrap;connectable=0;fillColor=none;top=0;left=0;bottom=0;right=0;align=left;spacingLeft=6;overflow=hidden;strokeColor=inherit;fontSize=16;" parent="HQN57xrEPyGpYtiTeR6K-232" vertex="1">
          <mxGeometry x="104" width="362" height="30" as="geometry">
            <mxRectangle width="362" height="30" as="alternateBounds" />
          </mxGeometry>
        </mxCell>
        <mxCell id="HQN57xrEPyGpYtiTeR6K-98" value="SERIE" style="shape=table;startSize=30;container=1;collapsible=0;childLayout=tableLayout;fixedRows=1;rowLines=0;fontStyle=0;strokeColor=default;fontSize=16;" parent="1" vertex="1">
          <mxGeometry x="440" y="1580" width="490" height="210" as="geometry" />
        </mxCell>
        <mxCell id="HQN57xrEPyGpYtiTeR6K-99" value="" style="shape=tableRow;horizontal=0;startSize=0;swimlaneHead=0;swimlaneBody=0;top=0;left=0;bottom=0;right=0;collapsible=0;dropTarget=0;fillColor=none;points=[[0,0.5],[1,0.5]];portConstraint=eastwest;strokeColor=inherit;fontSize=16;" parent="HQN57xrEPyGpYtiTeR6K-98" vertex="1">
          <mxGeometry y="30" width="490" height="30" as="geometry" />
        </mxCell>
        <mxCell id="HQN57xrEPyGpYtiTeR6K-100" value="1" style="shape=partialRectangle;html=1;whiteSpace=wrap;connectable=0;fillColor=none;top=0;left=0;bottom=0;right=0;overflow=hidden;pointerEvents=1;strokeColor=inherit;fontSize=16;" parent="HQN57xrEPyGpYtiTeR6K-99" vertex="1">
          <mxGeometry width="109" height="30" as="geometry">
            <mxRectangle width="109" height="30" as="alternateBounds" />
          </mxGeometry>
        </mxCell>
        <mxCell id="HQN57xrEPyGpYtiTeR6K-101" value="contenido_id INT PRIMARY KEY/FOREIGN KEY" style="shape=partialRectangle;html=1;whiteSpace=wrap;connectable=0;fillColor=none;top=0;left=0;bottom=0;right=0;align=left;spacingLeft=6;overflow=hidden;strokeColor=inherit;fontSize=16;" parent="HQN57xrEPyGpYtiTeR6K-99" vertex="1">
          <mxGeometry x="109" width="381" height="30" as="geometry">
            <mxRectangle width="381" height="30" as="alternateBounds" />
          </mxGeometry>
        </mxCell>
        <mxCell id="HQN57xrEPyGpYtiTeR6K-102" value="" style="shape=tableRow;horizontal=0;startSize=0;swimlaneHead=0;swimlaneBody=0;top=0;left=0;bottom=0;right=0;collapsible=0;dropTarget=0;fillColor=none;points=[[0,0.5],[1,0.5]];portConstraint=eastwest;strokeColor=inherit;fontSize=16;" parent="HQN57xrEPyGpYtiTeR6K-98" vertex="1">
          <mxGeometry y="60" width="490" height="40" as="geometry" />
        </mxCell>
        <mxCell id="HQN57xrEPyGpYtiTeR6K-103" value="2" style="shape=partialRectangle;html=1;whiteSpace=wrap;connectable=0;fillColor=none;top=0;left=0;bottom=0;right=0;overflow=hidden;strokeColor=inherit;fontSize=16;" parent="HQN57xrEPyGpYtiTeR6K-102" vertex="1">
          <mxGeometry width="109" height="40" as="geometry">
            <mxRectangle width="109" height="40" as="alternateBounds" />
          </mxGeometry>
        </mxCell>
        <mxCell id="HQN57xrEPyGpYtiTeR6K-104" value="temporada INT" style="shape=partialRectangle;html=1;whiteSpace=wrap;connectable=0;fillColor=none;top=0;left=0;bottom=0;right=0;align=left;spacingLeft=6;overflow=hidden;strokeColor=inherit;fontSize=16;" parent="HQN57xrEPyGpYtiTeR6K-102" vertex="1">
          <mxGeometry x="109" width="381" height="40" as="geometry">
            <mxRectangle width="381" height="40" as="alternateBounds" />
          </mxGeometry>
        </mxCell>
        <mxCell id="HQN57xrEPyGpYtiTeR6K-105" value="" style="shape=tableRow;horizontal=0;startSize=0;swimlaneHead=0;swimlaneBody=0;top=0;left=0;bottom=0;right=0;collapsible=0;dropTarget=0;fillColor=none;points=[[0,0.5],[1,0.5]];portConstraint=eastwest;strokeColor=inherit;fontSize=16;" parent="HQN57xrEPyGpYtiTeR6K-98" vertex="1">
          <mxGeometry y="100" width="490" height="30" as="geometry" />
        </mxCell>
        <mxCell id="HQN57xrEPyGpYtiTeR6K-106" value="3" style="shape=partialRectangle;html=1;whiteSpace=wrap;connectable=0;fillColor=none;top=0;left=0;bottom=0;right=0;overflow=hidden;strokeColor=inherit;fontSize=16;" parent="HQN57xrEPyGpYtiTeR6K-105" vertex="1">
          <mxGeometry width="109" height="30" as="geometry">
            <mxRectangle width="109" height="30" as="alternateBounds" />
          </mxGeometry>
        </mxCell>
        <mxCell id="HQN57xrEPyGpYtiTeR6K-107" value="disponibilidad BOOLEAN" style="shape=partialRectangle;html=1;whiteSpace=wrap;connectable=0;fillColor=none;top=0;left=0;bottom=0;right=0;align=left;spacingLeft=6;overflow=hidden;strokeColor=inherit;fontSize=16;" parent="HQN57xrEPyGpYtiTeR6K-105" vertex="1">
          <mxGeometry x="109" width="381" height="30" as="geometry">
            <mxRectangle width="381" height="30" as="alternateBounds" />
          </mxGeometry>
        </mxCell>
        <mxCell id="HQN57xrEPyGpYtiTeR6K-229" value="" style="shape=tableRow;horizontal=0;startSize=0;swimlaneHead=0;swimlaneBody=0;top=0;left=0;bottom=0;right=0;collapsible=0;dropTarget=0;fillColor=none;points=[[0,0.5],[1,0.5]];portConstraint=eastwest;strokeColor=inherit;fontSize=16;" parent="HQN57xrEPyGpYtiTeR6K-98" vertex="1">
          <mxGeometry y="130" width="490" height="40" as="geometry" />
        </mxCell>
        <mxCell id="HQN57xrEPyGpYtiTeR6K-230" value="4" style="shape=partialRectangle;html=1;whiteSpace=wrap;connectable=0;fillColor=none;top=0;left=0;bottom=0;right=0;overflow=hidden;strokeColor=inherit;fontSize=16;" parent="HQN57xrEPyGpYtiTeR6K-229" vertex="1">
          <mxGeometry width="109" height="40" as="geometry">
            <mxRectangle width="109" height="40" as="alternateBounds" />
          </mxGeometry>
        </mxCell>
        <mxCell id="HQN57xrEPyGpYtiTeR6K-231" value="precio DECIMAL (10, 2)" style="shape=partialRectangle;html=1;whiteSpace=wrap;connectable=0;fillColor=none;top=0;left=0;bottom=0;right=0;align=left;spacingLeft=6;overflow=hidden;strokeColor=inherit;fontSize=16;" parent="HQN57xrEPyGpYtiTeR6K-229" vertex="1">
          <mxGeometry x="109" width="381" height="40" as="geometry">
            <mxRectangle width="381" height="40" as="alternateBounds" />
          </mxGeometry>
        </mxCell>
        <mxCell id="3QBo7tCKn3bmK9ghBPKZ-8" value="" style="shape=tableRow;horizontal=0;startSize=0;swimlaneHead=0;swimlaneBody=0;top=0;left=0;bottom=0;right=0;collapsible=0;dropTarget=0;fillColor=none;points=[[0,0.5],[1,0.5]];portConstraint=eastwest;strokeColor=inherit;fontSize=16;" parent="HQN57xrEPyGpYtiTeR6K-98" vertex="1">
          <mxGeometry y="170" width="490" height="40" as="geometry" />
        </mxCell>
        <mxCell id="3QBo7tCKn3bmK9ghBPKZ-9" value="5" style="shape=partialRectangle;html=1;whiteSpace=wrap;connectable=0;fillColor=none;top=0;left=0;bottom=0;right=0;overflow=hidden;strokeColor=inherit;fontSize=16;" parent="3QBo7tCKn3bmK9ghBPKZ-8" vertex="1">
          <mxGeometry width="109" height="40" as="geometry">
            <mxRectangle width="109" height="40" as="alternateBounds" />
          </mxGeometry>
        </mxCell>
        <mxCell id="3QBo7tCKn3bmK9ghBPKZ-10" value="changedTS TIMESTAMP" style="shape=partialRectangle;html=1;whiteSpace=wrap;connectable=0;fillColor=none;top=0;left=0;bottom=0;right=0;align=left;spacingLeft=6;overflow=hidden;strokeColor=inherit;fontSize=16;" parent="3QBo7tCKn3bmK9ghBPKZ-8" vertex="1">
          <mxGeometry x="109" width="381" height="40" as="geometry">
            <mxRectangle width="381" height="40" as="alternateBounds" />
          </mxGeometry>
        </mxCell>
        <mxCell id="HQN57xrEPyGpYtiTeR6K-303" style="edgeStyle=orthogonalEdgeStyle;rounded=0;orthogonalLoop=1;jettySize=auto;html=1;entryX=0.5;entryY=0;entryDx=0;entryDy=0;" parent="1" source="HQN57xrEPyGpYtiTeR6K-131" target="HQN57xrEPyGpYtiTeR6K-1" edge="1">
          <mxGeometry relative="1" as="geometry" />
        </mxCell>
        <mxCell id="HQN57xrEPyGpYtiTeR6K-131" value="FACTURA" style="shape=table;startSize=30;container=1;collapsible=0;childLayout=tableLayout;fixedRows=1;rowLines=0;fontStyle=0;strokeColor=default;fontSize=16;" parent="1" vertex="1">
          <mxGeometry x="385" y="230" width="440" height="240" as="geometry" />
        </mxCell>
        <mxCell id="HQN57xrEPyGpYtiTeR6K-132" value="" style="shape=tableRow;horizontal=0;startSize=0;swimlaneHead=0;swimlaneBody=0;top=0;left=0;bottom=0;right=0;collapsible=0;dropTarget=0;fillColor=none;points=[[0,0.5],[1,0.5]];portConstraint=eastwest;strokeColor=inherit;fontSize=16;" parent="HQN57xrEPyGpYtiTeR6K-131" vertex="1">
          <mxGeometry y="30" width="440" height="30" as="geometry" />
        </mxCell>
        <mxCell id="HQN57xrEPyGpYtiTeR6K-133" value="1" style="shape=partialRectangle;html=1;whiteSpace=wrap;connectable=0;fillColor=none;top=0;left=0;bottom=0;right=0;overflow=hidden;pointerEvents=1;strokeColor=inherit;fontSize=16;" parent="HQN57xrEPyGpYtiTeR6K-132" vertex="1">
          <mxGeometry width="98" height="30" as="geometry">
            <mxRectangle width="98" height="30" as="alternateBounds" />
          </mxGeometry>
        </mxCell>
        <mxCell id="HQN57xrEPyGpYtiTeR6K-134" value="id INT PRIMARY KEY" style="shape=partialRectangle;html=1;whiteSpace=wrap;connectable=0;fillColor=none;top=0;left=0;bottom=0;right=0;align=left;spacingLeft=6;overflow=hidden;strokeColor=inherit;fontSize=16;" parent="HQN57xrEPyGpYtiTeR6K-132" vertex="1">
          <mxGeometry x="98" width="342" height="30" as="geometry">
            <mxRectangle width="342" height="30" as="alternateBounds" />
          </mxGeometry>
        </mxCell>
        <mxCell id="HQN57xrEPyGpYtiTeR6K-135" value="" style="shape=tableRow;horizontal=0;startSize=0;swimlaneHead=0;swimlaneBody=0;top=0;left=0;bottom=0;right=0;collapsible=0;dropTarget=0;fillColor=none;points=[[0,0.5],[1,0.5]];portConstraint=eastwest;strokeColor=inherit;fontSize=16;" parent="HQN57xrEPyGpYtiTeR6K-131" vertex="1">
          <mxGeometry y="60" width="440" height="30" as="geometry" />
        </mxCell>
        <mxCell id="HQN57xrEPyGpYtiTeR6K-136" value="2" style="shape=partialRectangle;html=1;whiteSpace=wrap;connectable=0;fillColor=none;top=0;left=0;bottom=0;right=0;overflow=hidden;strokeColor=inherit;fontSize=16;" parent="HQN57xrEPyGpYtiTeR6K-135" vertex="1">
          <mxGeometry width="98" height="30" as="geometry">
            <mxRectangle width="98" height="30" as="alternateBounds" />
          </mxGeometry>
        </mxCell>
        <mxCell id="HQN57xrEPyGpYtiTeR6K-137" value="cliente_id INT PRIMARY/FOREIGN KEY" style="shape=partialRectangle;html=1;whiteSpace=wrap;connectable=0;fillColor=none;top=0;left=0;bottom=0;right=0;align=left;spacingLeft=6;overflow=hidden;strokeColor=inherit;fontSize=16;" parent="HQN57xrEPyGpYtiTeR6K-135" vertex="1">
          <mxGeometry x="98" width="342" height="30" as="geometry">
            <mxRectangle width="342" height="30" as="alternateBounds" />
          </mxGeometry>
        </mxCell>
        <mxCell id="HQN57xrEPyGpYtiTeR6K-138" value="" style="shape=tableRow;horizontal=0;startSize=0;swimlaneHead=0;swimlaneBody=0;top=0;left=0;bottom=0;right=0;collapsible=0;dropTarget=0;fillColor=none;points=[[0,0.5],[1,0.5]];portConstraint=eastwest;strokeColor=inherit;fontSize=16;" parent="HQN57xrEPyGpYtiTeR6K-131" vertex="1">
          <mxGeometry y="90" width="440" height="30" as="geometry" />
        </mxCell>
        <mxCell id="HQN57xrEPyGpYtiTeR6K-139" value="3" style="shape=partialRectangle;html=1;whiteSpace=wrap;connectable=0;fillColor=none;top=0;left=0;bottom=0;right=0;overflow=hidden;strokeColor=inherit;fontSize=16;" parent="HQN57xrEPyGpYtiTeR6K-138" vertex="1">
          <mxGeometry width="98" height="30" as="geometry">
            <mxRectangle width="98" height="30" as="alternateBounds" />
          </mxGeometry>
        </mxCell>
        <mxCell id="HQN57xrEPyGpYtiTeR6K-140" value="total_IVA DECIMAL (10,2)" style="shape=partialRectangle;html=1;whiteSpace=wrap;connectable=0;fillColor=none;top=0;left=0;bottom=0;right=0;align=left;spacingLeft=6;overflow=hidden;strokeColor=inherit;fontSize=16;" parent="HQN57xrEPyGpYtiTeR6K-138" vertex="1">
          <mxGeometry x="98" width="342" height="30" as="geometry">
            <mxRectangle width="342" height="30" as="alternateBounds" />
          </mxGeometry>
        </mxCell>
        <mxCell id="HQN57xrEPyGpYtiTeR6K-271" value="" style="shape=tableRow;horizontal=0;startSize=0;swimlaneHead=0;swimlaneBody=0;top=0;left=0;bottom=0;right=0;collapsible=0;dropTarget=0;fillColor=none;points=[[0,0.5],[1,0.5]];portConstraint=eastwest;strokeColor=inherit;fontSize=16;" parent="HQN57xrEPyGpYtiTeR6K-131" vertex="1">
          <mxGeometry y="120" width="440" height="30" as="geometry" />
        </mxCell>
        <mxCell id="HQN57xrEPyGpYtiTeR6K-272" value="4" style="shape=partialRectangle;html=1;whiteSpace=wrap;connectable=0;fillColor=none;top=0;left=0;bottom=0;right=0;overflow=hidden;strokeColor=inherit;fontSize=16;" parent="HQN57xrEPyGpYtiTeR6K-271" vertex="1">
          <mxGeometry width="98" height="30" as="geometry">
            <mxRectangle width="98" height="30" as="alternateBounds" />
          </mxGeometry>
        </mxCell>
        <mxCell id="HQN57xrEPyGpYtiTeR6K-273" value="total DECIMAL (10,2)" style="shape=partialRectangle;html=1;whiteSpace=wrap;connectable=0;fillColor=none;top=0;left=0;bottom=0;right=0;align=left;spacingLeft=6;overflow=hidden;strokeColor=inherit;fontSize=16;" parent="HQN57xrEPyGpYtiTeR6K-271" vertex="1">
          <mxGeometry x="98" width="342" height="30" as="geometry">
            <mxRectangle width="342" height="30" as="alternateBounds" />
          </mxGeometry>
        </mxCell>
        <mxCell id="HQN57xrEPyGpYtiTeR6K-277" value="" style="shape=tableRow;horizontal=0;startSize=0;swimlaneHead=0;swimlaneBody=0;top=0;left=0;bottom=0;right=0;collapsible=0;dropTarget=0;fillColor=none;points=[[0,0.5],[1,0.5]];portConstraint=eastwest;strokeColor=inherit;fontSize=16;" parent="HQN57xrEPyGpYtiTeR6K-131" vertex="1">
          <mxGeometry y="150" width="440" height="30" as="geometry" />
        </mxCell>
        <mxCell id="HQN57xrEPyGpYtiTeR6K-278" value="5" style="shape=partialRectangle;html=1;whiteSpace=wrap;connectable=0;fillColor=none;top=0;left=0;bottom=0;right=0;overflow=hidden;strokeColor=inherit;fontSize=16;" parent="HQN57xrEPyGpYtiTeR6K-277" vertex="1">
          <mxGeometry width="98" height="30" as="geometry">
            <mxRectangle width="98" height="30" as="alternateBounds" />
          </mxGeometry>
        </mxCell>
        <mxCell id="HQN57xrEPyGpYtiTeR6K-279" value="IVA DECIMAL 5,4 (constante 0.21)" style="shape=partialRectangle;html=1;whiteSpace=wrap;connectable=0;fillColor=none;top=0;left=0;bottom=0;right=0;align=left;spacingLeft=6;overflow=hidden;strokeColor=inherit;fontSize=16;" parent="HQN57xrEPyGpYtiTeR6K-277" vertex="1">
          <mxGeometry x="98" width="342" height="30" as="geometry">
            <mxRectangle width="342" height="30" as="alternateBounds" />
          </mxGeometry>
        </mxCell>
        <mxCell id="HQN57xrEPyGpYtiTeR6K-280" value="" style="shape=tableRow;horizontal=0;startSize=0;swimlaneHead=0;swimlaneBody=0;top=0;left=0;bottom=0;right=0;collapsible=0;dropTarget=0;fillColor=none;points=[[0,0.5],[1,0.5]];portConstraint=eastwest;strokeColor=inherit;fontSize=16;" parent="HQN57xrEPyGpYtiTeR6K-131" vertex="1">
          <mxGeometry y="180" width="440" height="30" as="geometry" />
        </mxCell>
        <mxCell id="HQN57xrEPyGpYtiTeR6K-281" value="6" style="shape=partialRectangle;html=1;whiteSpace=wrap;connectable=0;fillColor=none;top=0;left=0;bottom=0;right=0;overflow=hidden;strokeColor=inherit;fontSize=16;" parent="HQN57xrEPyGpYtiTeR6K-280" vertex="1">
          <mxGeometry width="98" height="30" as="geometry">
            <mxRectangle width="98" height="30" as="alternateBounds" />
          </mxGeometry>
        </mxCell>
        <mxCell id="HQN57xrEPyGpYtiTeR6K-282" value="fecha DATE" style="shape=partialRectangle;html=1;whiteSpace=wrap;connectable=0;fillColor=none;top=0;left=0;bottom=0;right=0;align=left;spacingLeft=6;overflow=hidden;strokeColor=inherit;fontSize=16;" parent="HQN57xrEPyGpYtiTeR6K-280" vertex="1">
          <mxGeometry x="98" width="342" height="30" as="geometry">
            <mxRectangle width="342" height="30" as="alternateBounds" />
          </mxGeometry>
        </mxCell>
        <mxCell id="HQN57xrEPyGpYtiTeR6K-300" value="" style="shape=tableRow;horizontal=0;startSize=0;swimlaneHead=0;swimlaneBody=0;top=0;left=0;bottom=0;right=0;collapsible=0;dropTarget=0;fillColor=none;points=[[0,0.5],[1,0.5]];portConstraint=eastwest;strokeColor=inherit;fontSize=16;" parent="HQN57xrEPyGpYtiTeR6K-131" vertex="1">
          <mxGeometry y="210" width="440" height="30" as="geometry" />
        </mxCell>
        <mxCell id="HQN57xrEPyGpYtiTeR6K-301" value="7" style="shape=partialRectangle;html=1;whiteSpace=wrap;connectable=0;fillColor=none;top=0;left=0;bottom=0;right=0;overflow=hidden;strokeColor=inherit;fontSize=16;" parent="HQN57xrEPyGpYtiTeR6K-300" vertex="1">
          <mxGeometry width="98" height="30" as="geometry">
            <mxRectangle width="98" height="30" as="alternateBounds" />
          </mxGeometry>
        </mxCell>
        <mxCell id="HQN57xrEPyGpYtiTeR6K-302" value="changedTS TIMESTAMP" style="shape=partialRectangle;html=1;whiteSpace=wrap;connectable=0;fillColor=none;top=0;left=0;bottom=0;right=0;align=left;spacingLeft=6;overflow=hidden;strokeColor=inherit;fontSize=16;" parent="HQN57xrEPyGpYtiTeR6K-300" vertex="1">
          <mxGeometry x="98" width="342" height="30" as="geometry">
            <mxRectangle width="342" height="30" as="alternateBounds" />
          </mxGeometry>
        </mxCell>
        <mxCell id="HQN57xrEPyGpYtiTeR6K-164" style="edgeStyle=orthogonalEdgeStyle;rounded=0;orthogonalLoop=1;jettySize=auto;html=1;" parent="1" source="HQN57xrEPyGpYtiTeR6K-141" target="HQN57xrEPyGpYtiTeR6K-151" edge="1">
          <mxGeometry relative="1" as="geometry" />
        </mxCell>
        <mxCell id="HQN57xrEPyGpYtiTeR6K-141" value="LIN_FAC" style="shape=table;startSize=30;container=1;collapsible=0;childLayout=tableLayout;fixedRows=1;rowLines=0;fontStyle=0;strokeColor=default;fontSize=16;" parent="1" vertex="1">
          <mxGeometry x="370" y="690" width="470" height="150" as="geometry" />
        </mxCell>
        <mxCell id="HQN57xrEPyGpYtiTeR6K-142" value="" style="shape=tableRow;horizontal=0;startSize=0;swimlaneHead=0;swimlaneBody=0;top=0;left=0;bottom=0;right=0;collapsible=0;dropTarget=0;fillColor=none;points=[[0,0.5],[1,0.5]];portConstraint=eastwest;strokeColor=inherit;fontSize=16;" parent="HQN57xrEPyGpYtiTeR6K-141" vertex="1">
          <mxGeometry y="30" width="470" height="30" as="geometry" />
        </mxCell>
        <mxCell id="HQN57xrEPyGpYtiTeR6K-143" value="1" style="shape=partialRectangle;html=1;whiteSpace=wrap;connectable=0;fillColor=none;top=0;left=0;bottom=0;right=0;overflow=hidden;pointerEvents=1;strokeColor=inherit;fontSize=16;" parent="HQN57xrEPyGpYtiTeR6K-142" vertex="1">
          <mxGeometry width="104" height="30" as="geometry">
            <mxRectangle width="104" height="30" as="alternateBounds" />
          </mxGeometry>
        </mxCell>
        <mxCell id="HQN57xrEPyGpYtiTeR6K-144" value="id INT PRIMARY KEY/FOREIGN KEY" style="shape=partialRectangle;html=1;whiteSpace=wrap;connectable=0;fillColor=none;top=0;left=0;bottom=0;right=0;align=left;spacingLeft=6;overflow=hidden;strokeColor=inherit;fontSize=16;" parent="HQN57xrEPyGpYtiTeR6K-142" vertex="1">
          <mxGeometry x="104" width="366" height="30" as="geometry">
            <mxRectangle width="366" height="30" as="alternateBounds" />
          </mxGeometry>
        </mxCell>
        <mxCell id="HQN57xrEPyGpYtiTeR6K-145" value="" style="shape=tableRow;horizontal=0;startSize=0;swimlaneHead=0;swimlaneBody=0;top=0;left=0;bottom=0;right=0;collapsible=0;dropTarget=0;fillColor=none;points=[[0,0.5],[1,0.5]];portConstraint=eastwest;strokeColor=inherit;fontSize=16;" parent="HQN57xrEPyGpYtiTeR6K-141" vertex="1">
          <mxGeometry y="60" width="470" height="30" as="geometry" />
        </mxCell>
        <mxCell id="HQN57xrEPyGpYtiTeR6K-146" value="2" style="shape=partialRectangle;html=1;whiteSpace=wrap;connectable=0;fillColor=none;top=0;left=0;bottom=0;right=0;overflow=hidden;strokeColor=inherit;fontSize=16;" parent="HQN57xrEPyGpYtiTeR6K-145" vertex="1">
          <mxGeometry width="104" height="30" as="geometry">
            <mxRectangle width="104" height="30" as="alternateBounds" />
          </mxGeometry>
        </mxCell>
        <mxCell id="HQN57xrEPyGpYtiTeR6K-147" value="contenido_id INT PRIMARY KEY FOREIGN KEY" style="shape=partialRectangle;html=1;whiteSpace=wrap;connectable=0;fillColor=none;top=0;left=0;bottom=0;right=0;align=left;spacingLeft=6;overflow=hidden;strokeColor=inherit;fontSize=16;" parent="HQN57xrEPyGpYtiTeR6K-145" vertex="1">
          <mxGeometry x="104" width="366" height="30" as="geometry">
            <mxRectangle width="366" height="30" as="alternateBounds" />
          </mxGeometry>
        </mxCell>
        <mxCell id="HQN57xrEPyGpYtiTeR6K-148" value="" style="shape=tableRow;horizontal=0;startSize=0;swimlaneHead=0;swimlaneBody=0;top=0;left=0;bottom=0;right=0;collapsible=0;dropTarget=0;fillColor=none;points=[[0,0.5],[1,0.5]];portConstraint=eastwest;strokeColor=inherit;fontSize=16;" parent="HQN57xrEPyGpYtiTeR6K-141" vertex="1">
          <mxGeometry y="90" width="470" height="30" as="geometry" />
        </mxCell>
        <mxCell id="HQN57xrEPyGpYtiTeR6K-149" value="3" style="shape=partialRectangle;html=1;whiteSpace=wrap;connectable=0;fillColor=none;top=0;left=0;bottom=0;right=0;overflow=hidden;strokeColor=inherit;fontSize=16;" parent="HQN57xrEPyGpYtiTeR6K-148" vertex="1">
          <mxGeometry width="104" height="30" as="geometry">
            <mxRectangle width="104" height="30" as="alternateBounds" />
          </mxGeometry>
        </mxCell>
        <mxCell id="HQN57xrEPyGpYtiTeR6K-150" value="precio DECIMAL(10,2)" style="shape=partialRectangle;html=1;whiteSpace=wrap;connectable=0;fillColor=none;top=0;left=0;bottom=0;right=0;align=left;spacingLeft=6;overflow=hidden;strokeColor=inherit;fontSize=16;" parent="HQN57xrEPyGpYtiTeR6K-148" vertex="1">
          <mxGeometry x="104" width="366" height="30" as="geometry">
            <mxRectangle width="366" height="30" as="alternateBounds" />
          </mxGeometry>
        </mxCell>
        <mxCell id="HQN57xrEPyGpYtiTeR6K-274" value="" style="shape=tableRow;horizontal=0;startSize=0;swimlaneHead=0;swimlaneBody=0;top=0;left=0;bottom=0;right=0;collapsible=0;dropTarget=0;fillColor=none;points=[[0,0.5],[1,0.5]];portConstraint=eastwest;strokeColor=inherit;fontSize=16;" parent="HQN57xrEPyGpYtiTeR6K-141" vertex="1">
          <mxGeometry y="120" width="470" height="30" as="geometry" />
        </mxCell>
        <mxCell id="HQN57xrEPyGpYtiTeR6K-275" value="4" style="shape=partialRectangle;html=1;whiteSpace=wrap;connectable=0;fillColor=none;top=0;left=0;bottom=0;right=0;overflow=hidden;strokeColor=inherit;fontSize=16;" parent="HQN57xrEPyGpYtiTeR6K-274" vertex="1">
          <mxGeometry width="104" height="30" as="geometry">
            <mxRectangle width="104" height="30" as="alternateBounds" />
          </mxGeometry>
        </mxCell>
        <mxCell id="HQN57xrEPyGpYtiTeR6K-276" value="changedTS TIMESTAMP" style="shape=partialRectangle;html=1;whiteSpace=wrap;connectable=0;fillColor=none;top=0;left=0;bottom=0;right=0;align=left;spacingLeft=6;overflow=hidden;strokeColor=inherit;fontSize=16;" parent="HQN57xrEPyGpYtiTeR6K-274" vertex="1">
          <mxGeometry x="104" width="366" height="30" as="geometry">
            <mxRectangle width="366" height="30" as="alternateBounds" />
          </mxGeometry>
        </mxCell>
        <mxCell id="HQN57xrEPyGpYtiTeR6K-163" style="edgeStyle=orthogonalEdgeStyle;rounded=0;orthogonalLoop=1;jettySize=auto;html=1;" parent="1" source="HQN57xrEPyGpYtiTeR6K-151" target="HQN57xrEPyGpYtiTeR6K-131" edge="1">
          <mxGeometry relative="1" as="geometry" />
        </mxCell>
        <mxCell id="HQN57xrEPyGpYtiTeR6K-151" value="CARRITO" style="shape=table;startSize=30;container=1;collapsible=0;childLayout=tableLayout;fixedRows=1;rowLines=0;fontStyle=0;strokeColor=default;fontSize=16;" parent="1" vertex="1">
          <mxGeometry x="380" y="500" width="450" height="150" as="geometry" />
        </mxCell>
        <mxCell id="HQN57xrEPyGpYtiTeR6K-152" value="" style="shape=tableRow;horizontal=0;startSize=0;swimlaneHead=0;swimlaneBody=0;top=0;left=0;bottom=0;right=0;collapsible=0;dropTarget=0;fillColor=none;points=[[0,0.5],[1,0.5]];portConstraint=eastwest;strokeColor=inherit;fontSize=16;" parent="HQN57xrEPyGpYtiTeR6K-151" vertex="1">
          <mxGeometry y="30" width="450" height="30" as="geometry" />
        </mxCell>
        <mxCell id="HQN57xrEPyGpYtiTeR6K-153" value="1" style="shape=partialRectangle;html=1;whiteSpace=wrap;connectable=0;fillColor=none;top=0;left=0;bottom=0;right=0;overflow=hidden;pointerEvents=1;strokeColor=inherit;fontSize=16;" parent="HQN57xrEPyGpYtiTeR6K-152" vertex="1">
          <mxGeometry width="100" height="30" as="geometry">
            <mxRectangle width="100" height="30" as="alternateBounds" />
          </mxGeometry>
        </mxCell>
        <mxCell id="HQN57xrEPyGpYtiTeR6K-154" value="id INT PRIMARY KEY AUTO_INCREMENT" style="shape=partialRectangle;html=1;whiteSpace=wrap;connectable=0;fillColor=none;top=0;left=0;bottom=0;right=0;align=left;spacingLeft=6;overflow=hidden;strokeColor=inherit;fontSize=16;" parent="HQN57xrEPyGpYtiTeR6K-152" vertex="1">
          <mxGeometry x="100" width="350" height="30" as="geometry">
            <mxRectangle width="350" height="30" as="alternateBounds" />
          </mxGeometry>
        </mxCell>
        <mxCell id="HQN57xrEPyGpYtiTeR6K-155" value="" style="shape=tableRow;horizontal=0;startSize=0;swimlaneHead=0;swimlaneBody=0;top=0;left=0;bottom=0;right=0;collapsible=0;dropTarget=0;fillColor=none;points=[[0,0.5],[1,0.5]];portConstraint=eastwest;strokeColor=inherit;fontSize=16;" parent="HQN57xrEPyGpYtiTeR6K-151" vertex="1">
          <mxGeometry y="60" width="450" height="30" as="geometry" />
        </mxCell>
        <mxCell id="HQN57xrEPyGpYtiTeR6K-156" value="2" style="shape=partialRectangle;html=1;whiteSpace=wrap;connectable=0;fillColor=none;top=0;left=0;bottom=0;right=0;overflow=hidden;strokeColor=inherit;fontSize=16;" parent="HQN57xrEPyGpYtiTeR6K-155" vertex="1">
          <mxGeometry width="100" height="30" as="geometry">
            <mxRectangle width="100" height="30" as="alternateBounds" />
          </mxGeometry>
        </mxCell>
        <mxCell id="HQN57xrEPyGpYtiTeR6K-157" value="cliente_id INT PRIMARY KEY/FOREIGN KEY" style="shape=partialRectangle;html=1;whiteSpace=wrap;connectable=0;fillColor=none;top=0;left=0;bottom=0;right=0;align=left;spacingLeft=6;overflow=hidden;strokeColor=inherit;fontSize=16;" parent="HQN57xrEPyGpYtiTeR6K-155" vertex="1">
          <mxGeometry x="100" width="350" height="30" as="geometry">
            <mxRectangle width="350" height="30" as="alternateBounds" />
          </mxGeometry>
        </mxCell>
        <mxCell id="HQN57xrEPyGpYtiTeR6K-158" value="" style="shape=tableRow;horizontal=0;startSize=0;swimlaneHead=0;swimlaneBody=0;top=0;left=0;bottom=0;right=0;collapsible=0;dropTarget=0;fillColor=none;points=[[0,0.5],[1,0.5]];portConstraint=eastwest;strokeColor=inherit;fontSize=16;" parent="HQN57xrEPyGpYtiTeR6K-151" vertex="1">
          <mxGeometry y="90" width="450" height="30" as="geometry" />
        </mxCell>
        <mxCell id="HQN57xrEPyGpYtiTeR6K-159" value="3" style="shape=partialRectangle;html=1;whiteSpace=wrap;connectable=0;fillColor=none;top=0;left=0;bottom=0;right=0;overflow=hidden;strokeColor=inherit;fontSize=16;" parent="HQN57xrEPyGpYtiTeR6K-158" vertex="1">
          <mxGeometry width="100" height="30" as="geometry">
            <mxRectangle width="100" height="30" as="alternateBounds" />
          </mxGeometry>
        </mxCell>
        <mxCell id="HQN57xrEPyGpYtiTeR6K-160" value="total DECIMAL (10, 2)" style="shape=partialRectangle;html=1;whiteSpace=wrap;connectable=0;fillColor=none;top=0;left=0;bottom=0;right=0;align=left;spacingLeft=6;overflow=hidden;strokeColor=inherit;fontSize=16;" parent="HQN57xrEPyGpYtiTeR6K-158" vertex="1">
          <mxGeometry x="100" width="350" height="30" as="geometry">
            <mxRectangle width="350" height="30" as="alternateBounds" />
          </mxGeometry>
        </mxCell>
        <mxCell id="HQN57xrEPyGpYtiTeR6K-268" value="" style="shape=tableRow;horizontal=0;startSize=0;swimlaneHead=0;swimlaneBody=0;top=0;left=0;bottom=0;right=0;collapsible=0;dropTarget=0;fillColor=none;points=[[0,0.5],[1,0.5]];portConstraint=eastwest;strokeColor=inherit;fontSize=16;" parent="HQN57xrEPyGpYtiTeR6K-151" vertex="1">
          <mxGeometry y="120" width="450" height="30" as="geometry" />
        </mxCell>
        <mxCell id="HQN57xrEPyGpYtiTeR6K-269" value="4" style="shape=partialRectangle;html=1;whiteSpace=wrap;connectable=0;fillColor=none;top=0;left=0;bottom=0;right=0;overflow=hidden;strokeColor=inherit;fontSize=16;" parent="HQN57xrEPyGpYtiTeR6K-268" vertex="1">
          <mxGeometry width="100" height="30" as="geometry">
            <mxRectangle width="100" height="30" as="alternateBounds" />
          </mxGeometry>
        </mxCell>
        <mxCell id="HQN57xrEPyGpYtiTeR6K-270" value="changedTS TIMESTAMP" style="shape=partialRectangle;html=1;whiteSpace=wrap;connectable=0;fillColor=none;top=0;left=0;bottom=0;right=0;align=left;spacingLeft=6;overflow=hidden;strokeColor=inherit;fontSize=16;" parent="HQN57xrEPyGpYtiTeR6K-268" vertex="1">
          <mxGeometry x="100" width="350" height="30" as="geometry">
            <mxRectangle width="350" height="30" as="alternateBounds" />
          </mxGeometry>
        </mxCell>
        <mxCell id="HQN57xrEPyGpYtiTeR6K-201" value="TARIFA" style="shape=table;startSize=30;container=1;collapsible=0;childLayout=tableLayout;fixedRows=1;rowLines=0;fontStyle=0;strokeColor=default;fontSize=16;" parent="1" vertex="1">
          <mxGeometry x="1522" y="1190" width="470" height="120" as="geometry" />
        </mxCell>
        <mxCell id="HQN57xrEPyGpYtiTeR6K-202" value="" style="shape=tableRow;horizontal=0;startSize=0;swimlaneHead=0;swimlaneBody=0;top=0;left=0;bottom=0;right=0;collapsible=0;dropTarget=0;fillColor=none;points=[[0,0.5],[1,0.5]];portConstraint=eastwest;strokeColor=inherit;fontSize=16;" parent="HQN57xrEPyGpYtiTeR6K-201" vertex="1">
          <mxGeometry y="30" width="470" height="30" as="geometry" />
        </mxCell>
        <mxCell id="HQN57xrEPyGpYtiTeR6K-203" value="1" style="shape=partialRectangle;html=1;whiteSpace=wrap;connectable=0;fillColor=none;top=0;left=0;bottom=0;right=0;overflow=hidden;pointerEvents=1;strokeColor=inherit;fontSize=16;" parent="HQN57xrEPyGpYtiTeR6K-202" vertex="1">
          <mxGeometry width="105" height="30" as="geometry">
            <mxRectangle width="105" height="30" as="alternateBounds" />
          </mxGeometry>
        </mxCell>
        <mxCell id="HQN57xrEPyGpYtiTeR6K-204" value="id INT PRIMARY KEY AUTO_INCREMENT" style="shape=partialRectangle;html=1;whiteSpace=wrap;connectable=0;fillColor=none;top=0;left=0;bottom=0;right=0;align=left;spacingLeft=6;overflow=hidden;strokeColor=inherit;fontSize=16;" parent="HQN57xrEPyGpYtiTeR6K-202" vertex="1">
          <mxGeometry x="105" width="365" height="30" as="geometry">
            <mxRectangle width="365" height="30" as="alternateBounds" />
          </mxGeometry>
        </mxCell>
        <mxCell id="HQN57xrEPyGpYtiTeR6K-205" value="" style="shape=tableRow;horizontal=0;startSize=0;swimlaneHead=0;swimlaneBody=0;top=0;left=0;bottom=0;right=0;collapsible=0;dropTarget=0;fillColor=none;points=[[0,0.5],[1,0.5]];portConstraint=eastwest;strokeColor=inherit;fontSize=16;" parent="HQN57xrEPyGpYtiTeR6K-201" vertex="1">
          <mxGeometry y="60" width="470" height="30" as="geometry" />
        </mxCell>
        <mxCell id="HQN57xrEPyGpYtiTeR6K-206" value="2" style="shape=partialRectangle;html=1;whiteSpace=wrap;connectable=0;fillColor=none;top=0;left=0;bottom=0;right=0;overflow=hidden;strokeColor=inherit;fontSize=16;" parent="HQN57xrEPyGpYtiTeR6K-205" vertex="1">
          <mxGeometry width="105" height="30" as="geometry">
            <mxRectangle width="105" height="30" as="alternateBounds" />
          </mxGeometry>
        </mxCell>
        <mxCell id="HQN57xrEPyGpYtiTeR6K-207" value="porcentaje DECIMAL(5, 4) " style="shape=partialRectangle;html=1;whiteSpace=wrap;connectable=0;fillColor=none;top=0;left=0;bottom=0;right=0;align=left;spacingLeft=6;overflow=hidden;strokeColor=inherit;fontSize=16;" parent="HQN57xrEPyGpYtiTeR6K-205" vertex="1">
          <mxGeometry x="105" width="365" height="30" as="geometry">
            <mxRectangle width="365" height="30" as="alternateBounds" />
          </mxGeometry>
        </mxCell>
        <mxCell id="HQN57xrEPyGpYtiTeR6K-208" value="" style="shape=tableRow;horizontal=0;startSize=0;swimlaneHead=0;swimlaneBody=0;top=0;left=0;bottom=0;right=0;collapsible=0;dropTarget=0;fillColor=none;points=[[0,0.5],[1,0.5]];portConstraint=eastwest;strokeColor=inherit;fontSize=16;" parent="HQN57xrEPyGpYtiTeR6K-201" vertex="1">
          <mxGeometry y="90" width="470" height="30" as="geometry" />
        </mxCell>
        <mxCell id="HQN57xrEPyGpYtiTeR6K-209" value="3" style="shape=partialRectangle;html=1;whiteSpace=wrap;connectable=0;fillColor=none;top=0;left=0;bottom=0;right=0;overflow=hidden;strokeColor=inherit;fontSize=16;" parent="HQN57xrEPyGpYtiTeR6K-208" vertex="1">
          <mxGeometry width="105" height="30" as="geometry">
            <mxRectangle width="105" height="30" as="alternateBounds" />
          </mxGeometry>
        </mxCell>
        <mxCell id="HQN57xrEPyGpYtiTeR6K-210" value="changedTS TIMESTAMP" style="shape=partialRectangle;html=1;whiteSpace=wrap;connectable=0;fillColor=none;top=0;left=0;bottom=0;right=0;align=left;spacingLeft=6;overflow=hidden;strokeColor=inherit;fontSize=16;" parent="HQN57xrEPyGpYtiTeR6K-208" vertex="1">
          <mxGeometry x="105" width="365" height="30" as="geometry">
            <mxRectangle width="365" height="30" as="alternateBounds" />
          </mxGeometry>
        </mxCell>
        <mxCell id="HQN57xrEPyGpYtiTeR6K-211" value="CORTO" style="shape=table;startSize=30;container=1;collapsible=0;childLayout=tableLayout;fixedRows=1;rowLines=0;fontStyle=0;strokeColor=default;fontSize=16;" parent="1" vertex="1">
          <mxGeometry x="1470" y="1580" width="500" height="150" as="geometry" />
        </mxCell>
        <mxCell id="HQN57xrEPyGpYtiTeR6K-212" value="" style="shape=tableRow;horizontal=0;startSize=0;swimlaneHead=0;swimlaneBody=0;top=0;left=0;bottom=0;right=0;collapsible=0;dropTarget=0;fillColor=none;points=[[0,0.5],[1,0.5]];portConstraint=eastwest;strokeColor=inherit;fontSize=16;" parent="HQN57xrEPyGpYtiTeR6K-211" vertex="1">
          <mxGeometry y="30" width="500" height="30" as="geometry" />
        </mxCell>
        <mxCell id="HQN57xrEPyGpYtiTeR6K-213" value="1" style="shape=partialRectangle;html=1;whiteSpace=wrap;connectable=0;fillColor=none;top=0;left=0;bottom=0;right=0;overflow=hidden;pointerEvents=1;strokeColor=inherit;fontSize=16;" parent="HQN57xrEPyGpYtiTeR6K-212" vertex="1">
          <mxGeometry width="111" height="30" as="geometry">
            <mxRectangle width="111" height="30" as="alternateBounds" />
          </mxGeometry>
        </mxCell>
        <mxCell id="HQN57xrEPyGpYtiTeR6K-214" value="contenido_id INT PRIMARY KEY/FOREIGN KEY" style="shape=partialRectangle;html=1;whiteSpace=wrap;connectable=0;fillColor=none;top=0;left=0;bottom=0;right=0;align=left;spacingLeft=6;overflow=hidden;strokeColor=inherit;fontSize=16;" parent="HQN57xrEPyGpYtiTeR6K-212" vertex="1">
          <mxGeometry x="111" width="389" height="30" as="geometry">
            <mxRectangle width="389" height="30" as="alternateBounds" />
          </mxGeometry>
        </mxCell>
        <mxCell id="HQN57xrEPyGpYtiTeR6K-215" value="" style="shape=tableRow;horizontal=0;startSize=0;swimlaneHead=0;swimlaneBody=0;top=0;left=0;bottom=0;right=0;collapsible=0;dropTarget=0;fillColor=none;points=[[0,0.5],[1,0.5]];portConstraint=eastwest;strokeColor=inherit;fontSize=16;" parent="HQN57xrEPyGpYtiTeR6K-211" vertex="1">
          <mxGeometry y="60" width="500" height="30" as="geometry" />
        </mxCell>
        <mxCell id="HQN57xrEPyGpYtiTeR6K-216" value="2" style="shape=partialRectangle;html=1;whiteSpace=wrap;connectable=0;fillColor=none;top=0;left=0;bottom=0;right=0;overflow=hidden;strokeColor=inherit;fontSize=16;" parent="HQN57xrEPyGpYtiTeR6K-215" vertex="1">
          <mxGeometry width="111" height="30" as="geometry">
            <mxRectangle width="111" height="30" as="alternateBounds" />
          </mxGeometry>
        </mxCell>
        <mxCell id="HQN57xrEPyGpYtiTeR6K-217" value="disponibilidad BOOLEAN (constante true)" style="shape=partialRectangle;html=1;whiteSpace=wrap;connectable=0;fillColor=none;top=0;left=0;bottom=0;right=0;align=left;spacingLeft=6;overflow=hidden;strokeColor=inherit;fontSize=16;" parent="HQN57xrEPyGpYtiTeR6K-215" vertex="1">
          <mxGeometry x="111" width="389" height="30" as="geometry">
            <mxRectangle width="389" height="30" as="alternateBounds" />
          </mxGeometry>
        </mxCell>
        <mxCell id="HQN57xrEPyGpYtiTeR6K-218" value="" style="shape=tableRow;horizontal=0;startSize=0;swimlaneHead=0;swimlaneBody=0;top=0;left=0;bottom=0;right=0;collapsible=0;dropTarget=0;fillColor=none;points=[[0,0.5],[1,0.5]];portConstraint=eastwest;strokeColor=inherit;fontSize=16;" parent="HQN57xrEPyGpYtiTeR6K-211" vertex="1">
          <mxGeometry y="90" width="500" height="30" as="geometry" />
        </mxCell>
        <mxCell id="HQN57xrEPyGpYtiTeR6K-219" value="3" style="shape=partialRectangle;html=1;whiteSpace=wrap;connectable=0;fillColor=none;top=0;left=0;bottom=0;right=0;overflow=hidden;strokeColor=inherit;fontSize=16;" parent="HQN57xrEPyGpYtiTeR6K-218" vertex="1">
          <mxGeometry width="111" height="30" as="geometry">
            <mxRectangle width="111" height="30" as="alternateBounds" />
          </mxGeometry>
        </mxCell>
        <mxCell id="HQN57xrEPyGpYtiTeR6K-220" value="precio DECIMAL (10 ,2)" style="shape=partialRectangle;html=1;whiteSpace=wrap;connectable=0;fillColor=none;top=0;left=0;bottom=0;right=0;align=left;spacingLeft=6;overflow=hidden;strokeColor=inherit;fontSize=16;" parent="HQN57xrEPyGpYtiTeR6K-218" vertex="1">
          <mxGeometry x="111" width="389" height="30" as="geometry">
            <mxRectangle width="389" height="30" as="alternateBounds" />
          </mxGeometry>
        </mxCell>
        <mxCell id="3QBo7tCKn3bmK9ghBPKZ-14" value="" style="shape=tableRow;horizontal=0;startSize=0;swimlaneHead=0;swimlaneBody=0;top=0;left=0;bottom=0;right=0;collapsible=0;dropTarget=0;fillColor=none;points=[[0,0.5],[1,0.5]];portConstraint=eastwest;strokeColor=inherit;fontSize=16;" parent="HQN57xrEPyGpYtiTeR6K-211" vertex="1">
          <mxGeometry y="120" width="500" height="30" as="geometry" />
        </mxCell>
        <mxCell id="3QBo7tCKn3bmK9ghBPKZ-15" value="4" style="shape=partialRectangle;html=1;whiteSpace=wrap;connectable=0;fillColor=none;top=0;left=0;bottom=0;right=0;overflow=hidden;strokeColor=inherit;fontSize=16;" parent="3QBo7tCKn3bmK9ghBPKZ-14" vertex="1">
          <mxGeometry width="111" height="30" as="geometry">
            <mxRectangle width="111" height="30" as="alternateBounds" />
          </mxGeometry>
        </mxCell>
        <mxCell id="3QBo7tCKn3bmK9ghBPKZ-16" value="changedTS TIMESTAMP" style="shape=partialRectangle;html=1;whiteSpace=wrap;connectable=0;fillColor=none;top=0;left=0;bottom=0;right=0;align=left;spacingLeft=6;overflow=hidden;strokeColor=inherit;fontSize=16;" parent="3QBo7tCKn3bmK9ghBPKZ-14" vertex="1">
          <mxGeometry x="111" width="389" height="30" as="geometry">
            <mxRectangle width="389" height="30" as="alternateBounds" />
          </mxGeometry>
        </mxCell>
        <mxCell id="HQN57xrEPyGpYtiTeR6K-236" style="edgeStyle=orthogonalEdgeStyle;rounded=0;orthogonalLoop=1;jettySize=auto;html=1;" parent="1" source="HQN57xrEPyGpYtiTeR6K-205" target="HQN57xrEPyGpYtiTeR6K-57" edge="1">
          <mxGeometry relative="1" as="geometry">
            <Array as="points">
              <mxPoint x="1485" y="1260" />
              <mxPoint x="1485" y="1260" />
            </Array>
          </mxGeometry>
        </mxCell>
        <mxCell id="HQN57xrEPyGpYtiTeR6K-294" style="edgeStyle=orthogonalEdgeStyle;rounded=0;orthogonalLoop=1;jettySize=auto;html=1;entryX=0.5;entryY=0;entryDx=0;entryDy=0;" parent="1" source="HQN57xrEPyGpYtiTeR6K-283" target="HQN57xrEPyGpYtiTeR6K-57" edge="1">
          <mxGeometry relative="1" as="geometry">
            <Array as="points">
              <mxPoint x="1206" y="990" />
              <mxPoint x="1206" y="990" />
            </Array>
          </mxGeometry>
        </mxCell>
        <mxCell id="HQN57xrEPyGpYtiTeR6K-283" value="VALORACION" style="shape=table;startSize=30;container=1;collapsible=0;childLayout=tableLayout;fixedRows=1;rowLines=0;fontStyle=0;strokeColor=default;fontSize=16;" parent="1" vertex="1">
          <mxGeometry x="975" y="840" width="470" height="150" as="geometry" />
        </mxCell>
        <mxCell id="HQN57xrEPyGpYtiTeR6K-284" value="" style="shape=tableRow;horizontal=0;startSize=0;swimlaneHead=0;swimlaneBody=0;top=0;left=0;bottom=0;right=0;collapsible=0;dropTarget=0;fillColor=none;points=[[0,0.5],[1,0.5]];portConstraint=eastwest;strokeColor=inherit;fontSize=16;" parent="HQN57xrEPyGpYtiTeR6K-283" vertex="1">
          <mxGeometry y="30" width="470" height="30" as="geometry" />
        </mxCell>
        <mxCell id="HQN57xrEPyGpYtiTeR6K-285" value="1" style="shape=partialRectangle;html=1;whiteSpace=wrap;connectable=0;fillColor=none;top=0;left=0;bottom=0;right=0;overflow=hidden;pointerEvents=1;strokeColor=inherit;fontSize=16;" parent="HQN57xrEPyGpYtiTeR6K-284" vertex="1">
          <mxGeometry width="104" height="30" as="geometry">
            <mxRectangle width="104" height="30" as="alternateBounds" />
          </mxGeometry>
        </mxCell>
        <mxCell id="HQN57xrEPyGpYtiTeR6K-286" value="cliente_id PRIMARY KEY/FOREIGN KEY" style="shape=partialRectangle;html=1;whiteSpace=wrap;connectable=0;fillColor=none;top=0;left=0;bottom=0;right=0;align=left;spacingLeft=6;overflow=hidden;strokeColor=inherit;fontSize=16;" parent="HQN57xrEPyGpYtiTeR6K-284" vertex="1">
          <mxGeometry x="104" width="366" height="30" as="geometry">
            <mxRectangle width="366" height="30" as="alternateBounds" />
          </mxGeometry>
        </mxCell>
        <mxCell id="HQN57xrEPyGpYtiTeR6K-287" value="" style="shape=tableRow;horizontal=0;startSize=0;swimlaneHead=0;swimlaneBody=0;top=0;left=0;bottom=0;right=0;collapsible=0;dropTarget=0;fillColor=none;points=[[0,0.5],[1,0.5]];portConstraint=eastwest;strokeColor=inherit;fontSize=16;" parent="HQN57xrEPyGpYtiTeR6K-283" vertex="1">
          <mxGeometry y="60" width="470" height="30" as="geometry" />
        </mxCell>
        <mxCell id="HQN57xrEPyGpYtiTeR6K-288" value="2" style="shape=partialRectangle;html=1;whiteSpace=wrap;connectable=0;fillColor=none;top=0;left=0;bottom=0;right=0;overflow=hidden;strokeColor=inherit;fontSize=16;" parent="HQN57xrEPyGpYtiTeR6K-287" vertex="1">
          <mxGeometry width="104" height="30" as="geometry">
            <mxRectangle width="104" height="30" as="alternateBounds" />
          </mxGeometry>
        </mxCell>
        <mxCell id="HQN57xrEPyGpYtiTeR6K-289" value="contenido_id PRIMARY KEY/FOREIGN KEY" style="shape=partialRectangle;html=1;whiteSpace=wrap;connectable=0;fillColor=none;top=0;left=0;bottom=0;right=0;align=left;spacingLeft=6;overflow=hidden;strokeColor=inherit;fontSize=16;" parent="HQN57xrEPyGpYtiTeR6K-287" vertex="1">
          <mxGeometry x="104" width="366" height="30" as="geometry">
            <mxRectangle width="366" height="30" as="alternateBounds" />
          </mxGeometry>
        </mxCell>
        <mxCell id="HQN57xrEPyGpYtiTeR6K-290" value="" style="shape=tableRow;horizontal=0;startSize=0;swimlaneHead=0;swimlaneBody=0;top=0;left=0;bottom=0;right=0;collapsible=0;dropTarget=0;fillColor=none;points=[[0,0.5],[1,0.5]];portConstraint=eastwest;strokeColor=inherit;fontSize=16;" parent="HQN57xrEPyGpYtiTeR6K-283" vertex="1">
          <mxGeometry y="90" width="470" height="30" as="geometry" />
        </mxCell>
        <mxCell id="HQN57xrEPyGpYtiTeR6K-291" value="3" style="shape=partialRectangle;html=1;whiteSpace=wrap;connectable=0;fillColor=none;top=0;left=0;bottom=0;right=0;overflow=hidden;strokeColor=inherit;fontSize=16;" parent="HQN57xrEPyGpYtiTeR6K-290" vertex="1">
          <mxGeometry width="104" height="30" as="geometry">
            <mxRectangle width="104" height="30" as="alternateBounds" />
          </mxGeometry>
        </mxCell>
        <mxCell id="HQN57xrEPyGpYtiTeR6K-292" value="valor INT" style="shape=partialRectangle;html=1;whiteSpace=wrap;connectable=0;fillColor=none;top=0;left=0;bottom=0;right=0;align=left;spacingLeft=6;overflow=hidden;strokeColor=inherit;fontSize=16;" parent="HQN57xrEPyGpYtiTeR6K-290" vertex="1">
          <mxGeometry x="104" width="366" height="30" as="geometry">
            <mxRectangle width="366" height="30" as="alternateBounds" />
          </mxGeometry>
        </mxCell>
        <mxCell id="HQN57xrEPyGpYtiTeR6K-305" value="" style="shape=tableRow;horizontal=0;startSize=0;swimlaneHead=0;swimlaneBody=0;top=0;left=0;bottom=0;right=0;collapsible=0;dropTarget=0;fillColor=none;points=[[0,0.5],[1,0.5]];portConstraint=eastwest;strokeColor=inherit;fontSize=16;" parent="HQN57xrEPyGpYtiTeR6K-283" vertex="1">
          <mxGeometry y="120" width="470" height="30" as="geometry" />
        </mxCell>
        <mxCell id="HQN57xrEPyGpYtiTeR6K-306" value="4" style="shape=partialRectangle;html=1;whiteSpace=wrap;connectable=0;fillColor=none;top=0;left=0;bottom=0;right=0;overflow=hidden;strokeColor=inherit;fontSize=16;" parent="HQN57xrEPyGpYtiTeR6K-305" vertex="1">
          <mxGeometry width="104" height="30" as="geometry">
            <mxRectangle width="104" height="30" as="alternateBounds" />
          </mxGeometry>
        </mxCell>
        <mxCell id="HQN57xrEPyGpYtiTeR6K-307" value="changedTS TIMESTAMP" style="shape=partialRectangle;html=1;whiteSpace=wrap;connectable=0;fillColor=none;top=0;left=0;bottom=0;right=0;align=left;spacingLeft=6;overflow=hidden;strokeColor=inherit;fontSize=16;" parent="HQN57xrEPyGpYtiTeR6K-305" vertex="1">
          <mxGeometry x="104" width="366" height="30" as="geometry">
            <mxRectangle width="366" height="30" as="alternateBounds" />
          </mxGeometry>
        </mxCell>
        <mxCell id="HQN57xrEPyGpYtiTeR6K-293" style="edgeStyle=orthogonalEdgeStyle;rounded=0;orthogonalLoop=1;jettySize=auto;html=1;entryX=0.5;entryY=0;entryDx=0;entryDy=0;" parent="1" source="HQN57xrEPyGpYtiTeR6K-1" target="HQN57xrEPyGpYtiTeR6K-283" edge="1">
          <mxGeometry relative="1" as="geometry" />
        </mxCell>
        <mxCell id="HQN57xrEPyGpYtiTeR6K-304" style="edgeStyle=orthogonalEdgeStyle;rounded=0;orthogonalLoop=1;jettySize=auto;html=1;" parent="1" source="HQN57xrEPyGpYtiTeR6K-70" target="HQN57xrEPyGpYtiTeR6K-141" edge="1">
          <mxGeometry relative="1" as="geometry" />
        </mxCell>
        <mxCell id="HQN57xrEPyGpYtiTeR6K-309" style="edgeStyle=orthogonalEdgeStyle;rounded=0;orthogonalLoop=1;jettySize=auto;html=1;" parent="1" source="HQN57xrEPyGpYtiTeR6K-108" target="HQN57xrEPyGpYtiTeR6K-98" edge="1">
          <mxGeometry relative="1" as="geometry">
            <Array as="points" />
          </mxGeometry>
        </mxCell>
        <mxCell id="3QBo7tCKn3bmK9ghBPKZ-18" style="edgeStyle=orthogonalEdgeStyle;rounded=0;orthogonalLoop=1;jettySize=auto;html=1;entryX=0.5;entryY=0;entryDx=0;entryDy=0;" parent="1" source="HQN57xrEPyGpYtiTeR6K-57" target="HQN57xrEPyGpYtiTeR6K-88" edge="1">
          <mxGeometry relative="1" as="geometry" />
        </mxCell>
        <mxCell id="3QBo7tCKn3bmK9ghBPKZ-19" style="edgeStyle=orthogonalEdgeStyle;rounded=0;orthogonalLoop=1;jettySize=auto;html=1;entryX=0.5;entryY=0;entryDx=0;entryDy=0;" parent="1" source="HQN57xrEPyGpYtiTeR6K-57" target="HQN57xrEPyGpYtiTeR6K-211" edge="1">
          <mxGeometry relative="1" as="geometry">
            <Array as="points">
              <mxPoint x="1206" y="1480" />
              <mxPoint x="1720" y="1480" />
            </Array>
          </mxGeometry>
        </mxCell>
        <UserObject label="file:///home/crimadmor/Baixades/MIRAVEREDA_v2.drawio" link="file:///home/crimadmor/Baixades/MIRAVEREDA_v2.drawio" id="EsfXzpye9ehGzIw2HCck-1">
          <mxCell style="text;whiteSpace=wrap;html=1;" vertex="1" parent="1">
            <mxGeometry x="140" y="190" width="340" height="40" as="geometry" />
          </mxCell>
        </UserObject>
        <mxCell id="EsfXzpye9ehGzIw2HCck-2" value="&lt;div&gt;FALTA:&lt;/div&gt;&lt;div&gt;&lt;br&gt;&lt;/div&gt;&lt;div&gt;- Representar correctamente como realizar la compra en la BBDD&lt;/div&gt;&lt;div&gt;&lt;br&gt;&lt;/div&gt;&lt;div&gt;&lt;br&gt;&lt;/div&gt;" style="text;html=1;align=left;verticalAlign=top;whiteSpace=wrap;rounded=0;fontSize=16;" vertex="1" parent="1">
          <mxGeometry x="10" y="290" width="350" height="200" as="geometry" />
        </mxCell>
      </root>
    </mxGraphModel>
  </diagram>
</mxfile>
